<?xml version="1.0" standalone="no"?>
<!DOCTYPE svg PUBLIC "-//W3C//DTD SVG 1.1//EN" "http://www.w3.org/Graphics/SVG/1.1/DTD/svg11.dtd" >
<svg xmlns="http://www.w3.org/2000/svg" xmlns:xlink="http://www.w3.org/1999/xlink" version="1.1">
<metadata>
Created by FontForge 20170731 at Tue Dec  8 23:14:39 2020
 By Aleksey,,,
Copyright (c) 2016 by Andrew Herndon. All rights reserved.
</metadata>
<defs>
<font id="Zefani-Regular" horiz-adv-x="0" >
  <font-face 
    font-family="Zefani"
    font-weight="800"
    font-stretch="normal"
    units-per-em="2048"
    panose-1="0 0 9 0 0 0 0 0 0 0"
    ascent="1704"
    descent="-344"
    x-height="1098"
    cap-height="1536"
    bbox="-967 -553 2161 1984.62"
    underline-thickness="102"
    underline-position="-307"
    unicode-range="U+0020-2265"
  />
<missing-glyph horiz-adv-x="1024" 
d="M840 1704v-2048h-650v2048h650zM682 307h-340v-231h340v231zM614 240v-97h-204v97h204zM682 662h-205v-115h70v47h67v-96h-204v164h-68v-232h340v232zM682 911h-68v-135h-272v-69h340v204zM682 1034h-340v-67h135v-76h-135v-68h205v144h135v67zM477 1233v-74h-67v74h67z
M547 1303h-205v-213h340v69h-135v144zM682 1567h-338v-68h133v-76h-135v-67h340v67h-135v76h135v68zM682 29h-340v-68h143l-143 -96v-68h340v68h-209l143 96h66v68z" />
    <glyph glyph-name="f_f" unicode="ff" horiz-adv-x="1697" 
d="M657 1536q-4 0 -10.5 -0.5t-25.5 -6.5t-36 -16.5t-38 -33t-36 -53t-25.5 -80.5t-10.5 -111v-1206l39 -29h-432l41 31v1005q0 112 29.5 200t76.5 139.5t104 87.5t114 49.5t104 20t77 5.5zM1346 1536q-7 0 -19.5 -2t-44 -18t-55.5 -44.5t-44 -90.5t-20 -146v-1206l39 -29
h-432l41 31v547q-16 40 -46 76t-61 58.5t-60 39.5t-48 24l-18 8q8 3 20.5 8.5t47 24.5t63.5 40.5t59 57.5t43 74v47q0 88 18.5 161.5t49.5 123t71 89t84 61.5t88.5 37t84.5 20.5t71 7.5t50 1zM1266 784q8 3 20.5 8.5t47 24.5t63.5 41t59 58t43 75v-416q-16 41 -46 77.5
t-61 59.5t-60 40t-48 24zM1616 1290q0 69 -49 117.5t-119 48.5q-69 0 -118.5 -48.5t-49.5 -117.5t49.5 -118.5t118.5 -49.5q70 0 119 49.5t49 118.5z" />
    <glyph glyph-name="f_i" unicode="fi" horiz-adv-x="1204" 
d="M731 856v-827l-39 -29h430l-39 29v958l-391 -104zM1081 1284q0 72 -50 122t-122 50t-122 -50t-50 -122t50 -122t122 -50t122 50t50 122zM657 1536q-4 0 -10.5 -0.5t-25.5 -6.5t-36 -16.5t-38 -33t-36 -53t-25.5 -80.5t-10.5 -111v-1206l39 -29h-432l41 31v1005
q0 112 29.5 200t76.5 139.5t104 87.5t114 49.5t104 20t77 5.5z" />
    <glyph glyph-name=".notdef" horiz-adv-x="1024" 
d="M840 1704v-2048h-650v2048h650zM682 307h-340v-231h340v231zM614 240v-97h-204v97h204zM682 662h-205v-115h70v47h67v-96h-204v164h-68v-232h340v232zM682 911h-68v-135h-272v-69h340v204zM682 1034h-340v-67h135v-76h-135v-68h205v144h135v67zM477 1233v-74h-67v74h67z
M547 1303h-205v-213h340v69h-135v144zM682 1567h-338v-68h133v-76h-135v-67h340v67h-135v76h135v68zM682 29h-340v-68h143l-143 -96v-68h340v68h-209l143 96h66v68z" />
    <glyph glyph-name=".null" 
 />
    <glyph glyph-name="nonmarkingreturn" horiz-adv-x="682" 
 />
    <glyph glyph-name="space" unicode=" " horiz-adv-x="512" 
 />
    <glyph glyph-name="exclam" unicode="!" horiz-adv-x="505" 
d="M442 1360q6 -48 -4 -148q-7 -74 -87.5 -335.5t-96.5 -372.5q-11 92 -55.5 239t-85 277.5t-45.5 189.5q-4 44 -4.5 81.5t0.5 52.5l2 16q9 74 62 125t124 51h2q71 0 125 -51t63 -125zM426 172q0 72 -50.5 123t-121.5 51q-72 0 -122 -51t-50 -123q0 -71 50 -121.5t122 -50.5
q70 0 121 51t51 121z" />
    <glyph glyph-name="numbersign" unicode="#" horiz-adv-x="1298" 
d="M1237 987h-272l-103 -409h289v-21h-293l-139 -557h-21l138 557h-449l-139 -557h-21l138 557h-304v21h310l102 409h-323v21h327l131 528h23l-133 -528h450l131 528h23l-133 -528h268v-21zM842 578l102 409h-450l-103 -409h451z" />
    <glyph glyph-name="dollar" unicode="$" horiz-adv-x="1304" 
d="M948 1042q-83 9 -134 74.5t-42 147.5q9 83 72.5 134t146.5 42l21 -2q-8 12 -19.5 24t-24 21.5t-26.5 19t-26 16.5t-24.5 14t-20.5 10.5t-15 6.5l-8 4q91 -19 166 -65t119.5 -117t35.5 -151q-9 -83 -74 -135.5t-147 -43.5zM354 547q89 -9 144.5 -80t46.5 -162
q-10 -89 -79.5 -144t-160.5 -46l-20 2q21 -32 64 -63.5t74 -46.5t40 -17q-155 31 -259.5 132t-90.5 232q9 90 80 146.5t161 46.5zM760 965q236 -74 349.5 -191.5t113.5 -302.5q0 -96 -29.5 -179t-79 -141.5t-111.5 -97t-131 -53.5q73 45 88.5 170t-49.5 244
q-37 64 -95.5 102.5t-164.5 75.5v-772h-24v782q-37 12 -84 27q-117 37 -201.5 83t-137 101t-80 114.5t-38.5 131.5q-12 89 8 168.5t64 138t97 100.5t114 70q-15 -17 -28.5 -57t-17 -104t24.5 -132q37 -92 99 -141.5t180 -91.5v696h24v-707q18 -5 54.5 -17t54.5 -17z" />
    <glyph glyph-name="percent" unicode="%" horiz-adv-x="1701" 
d="M553 0h-21l635 1536h23zM365 774q-2 0 -6 1t-15 8t-20 18.5t-19 35t-14 54.5q-10 63 -10 272q0 164 12 250q4 32 13.5 56t20 36t20 20t15.5 9l7 2q-40 0 -87.5 -24.5t-93 -68.5t-76 -118t-30.5 -162t28 -164.5t71 -124t91.5 -74t92.5 -26.5zM440 774q3 0 7 1t15.5 8
t21.5 18.5t20 35t14 54.5q10 63 10 272q0 142 -12 250q-3 31 -12.5 55t-21 36.5t-22 20t-17.5 9.5l-7 2q30 0 67 -14.5t77 -46t72.5 -74t53.5 -105t21 -133.5q0 -88 -28.5 -164.5t-72 -124t-93 -74t-93.5 -26.5zM1257 0q-2 0 -6 1t-15 8t-20 18.5t-18.5 35t-13.5 54.5
q-10 63 -10 272q0 164 12 250q4 32 13.5 56t20 36t20 20t16.5 9l6 2q-40 0 -87.5 -24.5t-93 -68.5t-76 -118t-30.5 -162t28 -164.5t71 -124t91 -74t92 -26.5zM1333 0q3 0 7 1t15.5 8t21.5 18.5t20 35t14 54.5q10 63 10 272q0 142 -12 250q-3 31 -12.5 55t-21 36.5t-22 20
t-17.5 9.5l-7 2q30 0 67 -14.5t77 -46t72.5 -74t53.5 -105t21 -133.5q0 -88 -28.5 -164.5t-72 -124t-93 -74t-93.5 -26.5z" />
    <glyph glyph-name="ampersand" unicode="&#x26;" horiz-adv-x="1507" 
d="M1190 494q54 -69 79.5 -138.5t24.5 -131t-24.5 -126t-59.5 -119.5t-88 -114q8 19 9 39t-6 39.5t-15 36.5t-23.5 37t-26 32t-27.5 31t-23 26q-446 510 -613 766q-92 147 -86 289q3 152 109 264q27 28 62.5 50t57.5 30l21 8q-24 -19 -22.5 -83.5t32.5 -129.5
q27 -59 83 -140.5t99 -136t134 -164t119 -144.5zM997 1452q62 -56 65.5 -136t-50.5 -138q-31 -38 -103 -80q11 11 6 53q-7 52 -42.5 136.5t-77.5 156.5q-52 88 -90 92q12 2 39.5 2t70.5 -5t93 -25.5t89 -55.5zM1251 1098q72 0 123 -50.5t51 -121.5q0 -72 -51 -123t-123 -51
q-71 0 -121.5 51t-50.5 123q0 70 50.5 121t121.5 51zM780 76q-30 0 -63 8q-92 22 -197 158q-19 26 -59.5 79.5t-59.5 79.5q-102 154 -118 248q-6 35 -3 58t9 34l6 11q-11 -7 -22 -15t-41 -35.5t-53 -57t-48 -76.5t-37 -97q-41 -151 47 -285q67 -90 162 -137q126 -55 285 -35
q97 14 192 62z" />
    <glyph glyph-name="quotesingle" unicode="'" horiz-adv-x="391" 
d="M328 1434q6 -27 -2 -97q-5 -45 -60 -221.5t-69 -279.5q-15 105 -70.5 282t-60.5 217q-4 31 -4.5 56t0.5 34l1 9q6 53 43.5 87.5t88.5 34.5h2q50 0 87.5 -35t43.5 -87z" />
    <glyph glyph-name="parenleft" unicode="(" horiz-adv-x="593" 
d="M303 377q0 -90 21.5 -172.5t56.5 -143t77 -113t83.5 -87t76.5 -59t56 -35.5l22 -11q-8 2 -21.5 6.5t-55.5 24t-82.5 44t-96 69.5t-103 98.5t-96 133t-82.5 170t-55.5 213t-21.5 259.5v2v2q0 137 21 259t56.5 213.5t81.5 170t97 133t102 98.5t97 70t81.5 43.5t56.5 24.5
l21 6q-8 -4 -22.5 -11.5t-55 -34.5t-77.5 -59t-82.5 -86t-78 -113.5t-55 -142.5t-22.5 -173q-8 -212 -8 -400q0 -84 2 -183.5t4 -157.5z" />
    <glyph glyph-name="parenright" unicode=")" horiz-adv-x="595" 
d="M293 375q0 -90 -22 -172.5t-56.5 -143t-77 -113t-84.5 -87t-76.5 -59t-56.5 -35.5l-22 -11q13 3 35 11t86 42t122.5 78.5t129.5 127.5t122 183t86 250t35 324v4v2q0 174 -34 324t-88.5 251t-120 182.5t-131 128.5t-120 78.5t-88.5 42.5l-34 11q8 -4 22.5 -11.5t55.5 -35
t78 -60t83 -86.5t78.5 -114t55 -143t22.5 -173q8 -209 8 -397q0 -84 -2 -184t-4 -158z" />
    <glyph glyph-name="asterisk" unicode="*" horiz-adv-x="741" 
d="M500 1479q0 34 -22 57t-54 23q-35 0 -58.5 -23t-23.5 -57q0 -33 41 -114.5t41 -92.5q0 11 38 92.5t38 114.5zM500 1479q0 34 -22 57t-54 23q-35 0 -58.5 -23t-23.5 -57q0 -33 41 -114.5t41 -92.5q0 11 38 92.5t38 114.5zM500 1479q0 34 -22 57t-54 23q-35 0 -58.5 -23
t-23.5 -57q0 -33 41 -114.5t41 -92.5q0 11 38 92.5t38 114.5zM205 1237q-31 -17 -39.5 -47.5t8.5 -59.5t47.5 -37t61.5 9q29 18 79 92.5t58 79.5q-8 -5 -97 -12t-118 -25zM342 1067q0 -35 22.5 -57.5t55.5 -22.5q35 0 57.5 22.5t22.5 57.5q0 33 -40 114.5t-40 90.5
q0 -10 -39 -91t-39 -114zM283 1444q-31 17 -61.5 9t-45.5 -36q-18 -31 -10 -61t39 -49q29 -16 118.5 -22t98.5 -11q-10 5 -60 79t-79 91zM559 1102q31 -17 61.5 -9.5t47.5 35.5q17 31 8.5 61.5t-37.5 47.5q-29 18 -119.5 24t-99.5 11q10 -5 60 -79t79 -91zM639 1307
q29 19 37.5 48.5t-6.5 57.5q-19 31 -49.5 39.5t-61.5 -8.5q-29 -17 -78 -92t-59 -80q9 5 98.5 12t118.5 23zM70 4q0 4 -4 4q-5 0 -5 -4t5 -4q4 0 4 4z" />
    <glyph glyph-name="plus" unicode="+" horiz-adv-x="1187" 
d="M1106 780v-20h-502v-502h-20v502h-502v20h502v500h20v-500h502z" />
    <glyph glyph-name="comma" unicode="," horiz-adv-x="468" 
d="M283 8q-68 -22 -130.5 11t-82.5 102q-22 68 10.5 130.5t99.5 84.5q69 22 133 -11.5t84 -101.5q16 -69 3.5 -127.5t-53.5 -109t-93 -87.5t-113 -63l16.5 11t38 28t49 42t41 49t23.5 52z" />
    <glyph glyph-name="hyphen" unicode="-" horiz-adv-x="655" 
d="M61 594v24h533v-24h-533z" />
    <glyph glyph-name="period" unicode="." horiz-adv-x="466" 
d="M406 172q0 72 -51 123t-122 51q-72 0 -122 -51t-50 -123q0 -71 50 -121.5t122 -50.5q71 0 122 51t51 121z" />
    <glyph glyph-name="slash" unicode="/" horiz-adv-x="843" 
d="M84 -287h-23l701 1823h20z" />
    <glyph glyph-name="zero" unicode="0" horiz-adv-x="1484" 
d="M676 0q-7 2 -19.5 7.5t-45 36t-57.5 75t-47.5 133.5t-25.5 203q-6 161 -6 313l6 322q2 81 14 149t29.5 112.5t38 79.5t41 54t37 31.5t27.5 15.5l10 4q-32 -4 -73.5 -15.5t-100.5 -38.5t-115 -65t-113 -99.5t-99 -136.5t-68.5 -182t-26.5 -231q0 -123 26.5 -230t68.5 -182
t99 -136.5t112.5 -99.5t114.5 -65.5t100 -39t73 -15.5zM809 0q7 2 19.5 7.5t45 36t57.5 75t47.5 133.5t25.5 203q6 161 6 313l-6 322q-2 81 -14 149t-29.5 112.5t-38 79.5t-41 54t-37 31.5t-26.5 15.5l-11 4q32 -4 73.5 -15.5t100.5 -38.5t115 -65t113 -99.5t99 -136.5
t68.5 -182t26.5 -231q0 -123 -26.5 -230t-68.5 -182t-99 -136.5t-112.5 -99.5t-114.5 -65.5t-100 -39t-73 -15.5z" />
    <glyph glyph-name="one" unicode="1" horiz-adv-x="671" 
d="M569 0l-43 31v1542q-3 -8 -9 -21t-35.5 -49.5t-71 -68.5t-121 -68t-178.5 -57l45 -29v-1249l-43 -31h456z" />
    <glyph glyph-name="two" unicode="2" horiz-adv-x="1208" 
d="M1126 442q1 -32 -4.5 -71t-18 -91.5t-38.5 -100t-62.5 -89t-94.5 -66t-130 -24.5q-63 0 -124 25t-109.5 61t-95 72t-97.5 61t-100 25q-38 0 -79 -19.5t-63 -37.5t-22 -21q28 40 58 70.5t57 53t63.5 37.5t64.5 24.5t74 12.5t79 3.5t92 -4t99 -8.5t115.5 -12t127.5 -13
q55 -5 96.5 4.5t61.5 27t32.5 35.5t15.5 31zM1069 1311q59 -91 49 -201t-94 -197q-53 -54 -185 -127.5t-306 -168t-291 -179.5q16 18 44 48t100.5 115.5t131.5 161.5t114.5 164t72.5 144q14 50 17 106t-9 114t-37.5 107.5t-72.5 86.5t-109 51q126 0 227.5 -19t169 -52.5
t110.5 -71t68 -82.5zM457 1157q0 77 -55.5 131.5t-133.5 54.5q-76 0 -131 -54.5t-55 -131.5q0 -78 54.5 -133t131.5 -55q78 0 133.5 55t55.5 133z" />
    <glyph glyph-name="three" unicode="3" horiz-adv-x="1245" 
d="M649 852q25 0 56 -2.5t83 -12.5t100 -26.5t99.5 -48t89 -73t62 -105.5t24.5 -142q0 -94 -33 -169t-89 -123.5t-135 -81.5t-163.5 -48.5t-183.5 -19.5q22 7 43.5 18t56 37.5t63 76t42.5 114.5q21 102 18 186q0 108 -20 201q-13 55 -41.5 98t-60 64.5t-61.5 35.5t-49 17
l-20 4q6 2 15 5.5t34.5 19.5t47.5 36t44.5 55.5t33.5 78.5q12 45 12 161q0 71 -17 152q-8 43 -28 76.5t-42.5 51.5t-43.5 29.5t-35 14.5l-14 4q81 -4 152 -15t141 -35.5t119.5 -59.5t80.5 -90.5t31 -125.5q0 -77 -35 -141t-85 -103t-110 -66t-106 -37.5t-76 -10.5zM459 317
q0 78 -55.5 133.5t-133.5 55.5q-77 0 -132.5 -55.5t-55.5 -133.5t55.5 -133t132.5 -55q78 0 133.5 55t55.5 133zM475 1157q0 77 -55 131.5t-133 54.5q-77 0 -133 -55t-56 -131q0 -78 56 -133t133 -55q78 0 133 55t55 133z" />
    <glyph glyph-name="four" unicode="4" horiz-adv-x="1462" 
d="M1053 31l43 -31h-459l43 31v1276l164 229h209v-1505zM362 870q-13 -83 -2.5 -149.5t37 -116.5t54 -83.5t48.5 -50.5l21 -17h-438zM1161 639q7 3 19 8t44.5 23t59.5 39t55 54.5t41 70.5v-390q-24 61 -79 109.5t-97 66.5z" />
    <glyph glyph-name="five" unicode="5" horiz-adv-x="1216" 
d="M459 317q0 78 -55.5 133.5t-133.5 55.5q-77 0 -132.5 -55.5t-55.5 -133.5t55.5 -133t132.5 -55q78 0 133.5 55t55.5 133zM371 940q119 11 215 9.5t170.5 -22.5t130.5 -47.5t96.5 -64.5t66.5 -75t41 -79t21 -75t6 -64q0 -62 -15 -121.5t-56.5 -125.5t-106 -119
t-172.5 -95.5t-246 -60.5q48 17 111.5 84.5t85.5 163.5q29 128 20 260q-3 46 -15 94.5t-39.5 105t-67.5 102.5t-104 82t-142 48zM1130 1540q5 -17 5 -42.5t-4.5 -58.5t-16.5 -69t-30 -71.5t-47.5 -67.5t-66 -57t-88.5 -39.5t-112 -14.5q-97 0 -261 44t-230 44
q-40 0 -71 -9.5t-47 -22.5t-26.5 -26t-12.5 -22l-3 -10v209q0 25 24.5 60.5t67.5 70t112 57.5t146 21q76 -3 192 -42t197 -44q77 -5 133 2.5t81.5 21.5t40 29t15.5 26z" />
    <glyph glyph-name="six" unicode="6" horiz-adv-x="1312" 
d="M1141 1247q0 78 -55.5 133.5t-133.5 55.5t-133 -55.5t-55 -133.5q0 -77 55 -131.5t133 -54.5t133.5 54.5t55.5 131.5zM868 860q66 0 128 -23.5t116 -70.5t86.5 -127.5t32.5 -183.5q0 -129 -70.5 -233t-178.5 -160t-230 -62q5 1 13 4.5t28.5 20t37 40t32 69.5t18.5 104
q6 138 4 213q-3 129 -21 198q-51 198 -211 154q9 6 25.5 15.5t72.5 25.5t117 16zM481 455q4 -127 15.5 -215t31 -135.5t38 -69.5t44.5 -35q-39 4 -82.5 16.5t-95.5 39.5t-100.5 65.5t-94.5 99t-80 134t-54.5 175.5t-20.5 220q0 122 24.5 228.5t65 183.5t94 141t108.5 105
t112.5 70t103.5 42t82 16q-7 -2 -19.5 -7.5t-44 -35t-56.5 -73.5t-46.5 -132t-24.5 -201q-6 -169 -6 -319z" />
    <glyph glyph-name="seven" unicode="7" horiz-adv-x="1179" 
d="M846 942l127 109q-9 -14 -27.5 -38.5t-27.5 -37.5q-7 -11 -27 -39t-31 -45q-109 -150 -168 -316q-53 -151 -53 -301q0 -138 47 -274h-493q-3 34 -3 61q0 211 91 363q98 157 329 336zM1094 1540q5 -17 5 -42.5t-4.5 -58.5t-16.5 -69t-30.5 -71.5t-48 -67.5t-66 -57
t-88.5 -39.5t-112 -14.5q-97 0 -261 44t-230 44q-40 0 -71 -10t-47 -24t-26.5 -28t-13.5 -24l-2 -10v215q0 25 24.5 60.5t67.5 70.5t112 58t146 20q76 -3 192 -42t197 -44q77 -4 133 3.5t82 21.5t40.5 28.5t15.5 25.5z" />
    <glyph glyph-name="eight" unicode="8" horiz-adv-x="1355" 
d="M473 678q9 33 24 59t29 40t35 24.5t32.5 14t29.5 7.5q-31 15 -59.5 56.5t-43.5 95.5q-18 71 -18 221q0 129 18 199q15 63 50 99t65 42q-125 -3 -230.5 -43.5t-172 -118t-66.5 -178.5q0 -65 20 -120.5t52.5 -92t71.5 -66t78 -46.5t71.5 -28t52.5 -15l20 -3
q-9 -1 -25.5 -3.5t-63 -14t-89 -28t-94.5 -48.5t-89.5 -72t-63 -102.5t-25.5 -136.5q0 -189 136.5 -300t363.5 -120q-82 37 -111 203q-18 97 -18 229q0 180 20 246zM883 678q-9 33 -24 59t-29 40t-35 24.5t-32.5 14t-29.5 7.5q31 15 59.5 56.5t43.5 95.5q18 71 18 221
q0 129 -18 199q-15 63 -50 99t-65 42q125 -3 230.5 -43.5t172 -118t66.5 -178.5q0 -65 -20 -120.5t-52.5 -92t-72 -66t-78.5 -46.5t-71.5 -28t-52.5 -15l-20 -3q9 -1 25.5 -3.5t63.5 -14t89.5 -28t94.5 -48.5t89.5 -72t63 -102.5t25.5 -136.5q0 -189 -136.5 -300
t-363.5 -120q82 37 111 203q18 97 18 229q0 180 -20 246z" />
    <glyph glyph-name="nine" unicode="9" horiz-adv-x="1312" 
d="M172 289q0 -78 55 -133.5t133 -55.5t133.5 55.5t55.5 133.5q0 77 -55.5 131.5t-133.5 54.5t-133 -54.5t-55 -131.5zM444 676q-66 0 -128 23.5t-115.5 70.5t-86 127.5t-32.5 183.5q0 129 70.5 233t178.5 160t230 62q-5 -1 -13 -4.5t-28.5 -20t-37 -40t-32 -69.5
t-18.5 -104q-6 -138 -4 -213q3 -129 21 -198q51 -198 210 -154q-9 -6 -25.5 -15.5t-72.5 -25.5t-117 -16zM831 1081q-4 127 -15.5 215t-31 135.5t-38 69.5t-44.5 35q39 -4 82.5 -17t95.5 -40.5t100.5 -66.5t95 -99.5t80.5 -134t54.5 -175t20.5 -217.5q0 -122 -24.5 -228.5
t-65 -183.5t-94 -141t-108.5 -105t-112.5 -70t-103.5 -42t-82 -16q7 2 19.5 7.5t44 35t56 73.5t46 132t24.5 201q7 169 7 319q0 68 -2 146t-4 122z" />
    <glyph glyph-name="colon" unicode=":" horiz-adv-x="468" 
d="M408 883q0 71 -51 121.5t-121 50.5q-72 0 -123.5 -50.5t-51.5 -121.5q0 -72 51.5 -123t123.5 -51q71 0 121.5 51t50.5 123zM408 172q0 72 -50.5 123t-121.5 51q-72 0 -123.5 -51t-51.5 -123q0 -71 51.5 -121.5t123.5 -50.5q70 0 121 51t51 121z" />
    <glyph glyph-name="semicolon" unicode=";" horiz-adv-x="468" 
d="M406 881q0 72 -50.5 122t-122.5 50q-71 0 -121.5 -50t-50.5 -122q0 -71 50.5 -121.5t121.5 -50.5q72 0 122.5 50.5t50.5 121.5zM283 8q-68 -22 -130.5 11t-82.5 102q-22 68 10.5 130.5t99.5 84.5q69 22 133 -11.5t84 -101.5q17 -68 3 -129.5t-55 -115t-94 -93t-114 -65.5
q7 5 18.5 13.5t41 33t52.5 48t44 54t24 54.5q-22 -11 -34 -15z" />
    <glyph glyph-name="less" unicode="&#x3c;" horiz-adv-x="698" 
d="M604 358l12 17l-501 385l501 381l-12 16l-522 -397z" />
    <glyph glyph-name="equal" unicode="=" horiz-adv-x="1153" 
d="M1071 969v20h-989v-20h989zM1071 543v20h-989v-20h989z" />
    <glyph glyph-name="greater" unicode="&#x3e;" horiz-adv-x="698" 
d="M94 358l-12 17l500 385l-500 381l12 16l522 -397z" />
    <glyph glyph-name="question" unicode="?" horiz-adv-x="1120" 
d="M1059 1161q0 -82 -42 -149t-118.5 -125.5t-161 -113.5t-193.5 -140t-192 -178l10 17q11 18 29 49t41 72.5t48.5 92t50.5 104.5t48 113t41 114.5t28.5 111t10.5 100.5q0 126 -63 215q-49 73 -129 92q127 3 231 -20q108 -24 187 -72q76 -43 127 -117q47 -74 47 -166z
M436 1188q0 78 -54.5 133t-131.5 55q-78 0 -133.5 -55t-55.5 -133q0 -77 55.5 -132t133.5 -55q76 0 131 55t55 132zM653 172q0 72 -50.5 123t-121.5 51q-72 0 -123 -51t-51 -123q0 -71 51 -121.5t123 -50.5q71 0 121.5 51t50.5 121z" />
    <glyph glyph-name="at" unicode="@" horiz-adv-x="2007" 
d="M780 739q-30 -119 -49 -233q-16 -92 3 -144.5t54 -64.5q-71 -19 -141 -1.5t-124.5 71t-74 146t10.5 224.5q17 71 49 134.5t70.5 111t84.5 88t92.5 64.5t92.5 40t85.5 15t72.5 -10q-33 -8 -82 -64t-78 -145q-25 -73 -66 -232zM1923 932q12 -180 -51 -340
q-51 -125 -138.5 -204.5t-195.5 -106.5q-8 -2 -21 -5t-56 -10.5t-80 -9t-92.5 -1.5t-94.5 12t-85.5 32.5t-65 59.5t-34 92.5t8.5 132.5l151 614h324l-39 -24l-164 -670q-12 -59 -5 -98.5t28 -62.5t48.5 -34.5t58 -14.5t56 -1t42.5 5l16 3q106 26 188 103t129 194
q64 159 52 334q-15 179 -103 321q-118 186 -323 297q-204 109 -445 109q-188 0 -362 -74q-166 -71 -295 -199q-129 -129 -199 -294q-74 -174 -74 -363q0 -188 74 -362q70 -167 199 -295q128 -129 295 -199q174 -74 362 -74q166 0 326 60q155 57 274 159l13 -14
q-123 -106 -281 -166q-160 -59 -332 -59q-193 0 -370 76q-171 71 -302 202q-130 130 -204 301q-74 180 -74 371t74 371q74 171 204 301q131 131 302 205q177 73 370 73q243 0 455 -110q210 -115 330 -303q90 -142 106 -334z" />
    <glyph glyph-name="A" unicode="A" horiz-adv-x="1568" 
d="M1016 0h450l-39 31l-553 1505h-186l-94 -303l221 -578l-344 2q54 -7 119.5 -29.5t133 -57t122 -86.5t76.5 -109l129 -344zM485 0q-3 1 -8 4.5t-19 17.5t-26.5 32.5t-27.5 52t-25 74t-15.5 101t-3.5 130.5q-4 -14 -12 -38t-34.5 -87t-55 -115t-71 -103t-85.5 -69h383z" />
    <glyph glyph-name="B" unicode="B" horiz-adv-x="1437" 
d="M102 1536h414v-1536h-405l34 31v1474zM1352 412q0 98 -49.5 179t-129 131t-174 76.5t-190.5 26.5q189 15 308.5 110t119.5 236q0 147 -150 256t-374 109q22 -4 43.5 -14.5t48.5 -34.5t45 -71.5t22 -112.5q7 -62 7 -132q0 -31 -1.5 -63.5t-3.5 -49.5l-2 -16
q-3 -52 -17 -92.5t-30.5 -62.5t-40.5 -37t-40 -20t-37 -9q21 -5 44 -13.5t55.5 -29t58 -48.5t45.5 -74.5t24 -102.5q6 -61 6 -141l-6 -146q-5 -70 -28 -123t-56.5 -81.5t-63.5 -43t-59 -18.5q52 0 105.5 4.5t116.5 17t118.5 32t109 52t91.5 74t61 101.5t23 131z" />
    <glyph glyph-name="C" unicode="C" horiz-adv-x="1443" 
d="M924 0q75 45 165 159.5t158 241t94 220.5l-4 -621q-36 50 -94.5 62.5t-107.5 -1t-116 -35.5t-95 -26zM1337 1536l4 -592q-40 146 -184.5 335.5t-277.5 256.5q27 -3 101.5 -24.5t132 -34.5t123 -1.5t101.5 60.5zM754 0q-30 13 -49.5 24.5t-54 45.5t-56.5 77t-41 120
t-23 175q-8 162 -8 314q0 67 2 147t4 127l2 47q10 373 179 459q-39 -4 -86.5 -17t-109.5 -41.5t-120 -68t-115.5 -102t-100 -139t-69 -183t-26.5 -229.5q0 -121 28.5 -225.5t74.5 -178.5t108 -134.5t124 -98t128.5 -64.5t116.5 -39t92 -16z" />
    <glyph glyph-name="D" unicode="D" horiz-adv-x="1523" 
d="M102 1536h414v-1536h-414l43 31v1474zM1421 756q0 106 -24 202t-65.5 171.5t-98 139.5t-120 110t-132 80t-134 53t-126.5 24q239 -92 252 -453q10 -177 10 -327q0 -68 -2.5 -148t-4.5 -126l-3 -46q-4 -98 -25.5 -175t-48 -120.5t-64 -76t-61 -43.5t-51.5 -21q89 5 181 34
t186 89.5t166.5 144.5t118.5 211t46 277z" />
    <glyph glyph-name="E" unicode="E" horiz-adv-x="1341" 
d="M516 1536v-1536h-414l41 31v1474l-41 31h414zM680 0q34 10 58.5 17.5t65 23t71 30.5t71.5 39t72.5 50t67 62.5t62.5 77t51 93t40 111.5v-504h-559zM899 457q-1 8 -10 33t-32.5 67t-55 82.5t-83.5 78t-112 54.5q60 18 112.5 56t84 79t54.5 79t33 62l9 25v-616zM1141 1536
h-463q72 -19 138 -59.5t113.5 -91t87 -106t65 -109t40.5 -94t19 -66.5v526z" />
    <glyph glyph-name="F" unicode="F" horiz-adv-x="1243" 
d="M102 0l43 31v1474l-43 31h414v-1505l43 -31h-457zM1141 1536h-463q72 -19 138 -59.5t113.5 -91t87 -106t65 -109t40.5 -94t19 -66.5v526zM899 455q-1 8 -10 33t-32.5 67t-55 82.5t-83.5 78t-112 54.5q60 18 112.5 56t84 79t54.5 79t33 62l9 25v-616z" />
    <glyph glyph-name="G" unicode="G" horiz-adv-x="1560" 
d="M1034 741h424v-702q-3 6 -7.5 15.5t-22 33.5t-36.5 43t-49.5 34t-62.5 15q-56 0 -119 -35t-126 -85t-85 -62q129 123 129 305v408zM754 0q-30 13 -49.5 24.5t-54 45.5t-56.5 77t-41 120t-23 175q-8 162 -8 314q0 67 2 147t4 127l2 47q10 373 179 459q-39 -4 -86.5 -17
t-109.5 -41.5t-120 -68t-115.5 -102t-100 -139t-69 -183t-26.5 -229.5q0 -121 28.5 -225.5t74.5 -178.5t108 -134.5t124 -98t128.5 -64.5t116.5 -39t92 -16zM1333 1536l4 -606q-26 93 -100 217t-174.5 234.5t-188.5 154.5q27 -3 102 -24.5t132 -34.5t123 -1.5t102 60.5z" />
    <glyph glyph-name="H" unicode="H" horiz-adv-x="1527" 
d="M557 0l-43 31v1476l41 29h-453l41 -31v-1474l-41 -31h455zM971 0l43 31v506q0 61 -34 111t-83 77.5t-98 46.5t-83 25l-34 6h332v702l-43 31h452l-39 -29v-1476l41 -31h-454z" />
    <glyph glyph-name="I" unicode="I" horiz-adv-x="659" 
d="M557 0l-43 31v1474l43 31h-455l43 -31v-1474l-43 -31h455z" />
    <glyph glyph-name="J" unicode="J" horiz-adv-x="727" 
d="M184 1536h441l-37 -23v-1245q0 -123 -32.5 -221t-88 -161.5t-131 -103.5t-160 -53.5t-176.5 -4.5q28 5 56 21t58 52t53 87t37.5 132.5t14.5 182.5v1314z" />
    <glyph glyph-name="K" unicode="K" horiz-adv-x="1628" 
d="M1526 0h-512l33 31l-420 735l272 270l582 -1005zM1497 1536h-565q7 -4 18 -12t33.5 -39t33.5 -70t3.5 -106.5t-43.5 -145.5q10 13 28 35t75 80.5t115 105.5t141.5 92.5t160.5 59.5zM514 1505v-1474l43 -31h-455l41 31v1474l-32 31h444z" />
    <glyph glyph-name="L" unicode="L" horiz-adv-x="1277" 
d="M102 0h412v1507l41 29h-453l43 -31v-1474zM680 0q36 5 88 30t115 72.5t120 108.5t104.5 148t68.5 182v-541h-496z" />
    <glyph glyph-name="M" unicode="M" horiz-adv-x="1818" 
d="M1675 31l41 -31h-454l43 31v1257l106 248h303l-39 -29v-1476zM975 535l123 182l-174 -717h-140l-622 1505l-56 31h463zM479 0q-6 2 -16 8.5t-37 38.5t-50 78.5t-47.5 138t-37.5 207.5q-15 -85 -33.5 -157t-36.5 -119t-35.5 -84t-32.5 -57t-26.5 -33t-18.5 -17l-6 -4h377z
" />
    <glyph glyph-name="N" unicode="N" horiz-adv-x="1648" 
d="M573 0q-51 35 -91.5 105.5t-62 146t-35.5 146t-18 116.5l-4 45q-1 -18 -4.5 -48t-20 -112t-38.5 -151t-64.5 -141.5t-95.5 -106.5h434zM1247 510l82 219l-20 -729h-172l-985 1505l-50 31h469zM1147 1536h399q-6 -3 -16 -9.5t-38 -38t-51 -75t-48 -127.5t-37 -188
q-10 77 -27 142.5t-36 109.5t-40 78.5t-39.5 54t-33.5 32.5t-24 17z" />
    <glyph glyph-name="O" unicode="O" horiz-adv-x="1615" 
d="M717 0q-53 32 -76 57q-99 106 -109 398q-8 161 -8 313q0 67 2 147.5t4 127.5l2 47q3 102 19.5 181.5t35.5 123t49 77t45 43t38 21.5q-34 -3 -80 -16t-108 -42t-122.5 -69t-120 -102.5t-105 -137t-73.5 -179t-28 -222.5q0 -114 28 -216t73.5 -176.5t105 -138t120 -104.5
t122 -71t107.5 -44.5t79 -17.5zM899 0q53 32 76 57q98 107 108 398q9 161 9 313q0 67 -2 147.5t-4 127.5l-3 47q-3 102 -19.5 181.5t-35.5 123t-48.5 77t-44.5 43t-38 21.5q33 -3 79 -16t108 -42t122.5 -69t120.5 -102.5t105.5 -137t73.5 -179t28 -222.5q0 -114 -28 -216
t-73.5 -176.5t-105 -138t-120 -104.5t-122 -71t-107.5 -44.5t-79 -17.5z" />
    <glyph glyph-name="P" unicode="P" horiz-adv-x="1349" 
d="M102 0l43 31v1474l-43 31h414v-1505l39 -31h-453zM1247 1063q0 97 -42 183.5t-115.5 150.5t-180 101.5t-229.5 37.5q17 -4 31.5 -9.5t37.5 -17.5t41.5 -32.5t36 -48.5t28.5 -71t13 -95q6 -109 6 -199l-6 -191q-3 -65 -16.5 -115.5t-29.5 -78.5t-41 -47.5t-42.5 -27
t-40.5 -13.5q248 0 398.5 133.5t150.5 339.5z" />
    <glyph glyph-name="Q" unicode="Q" horiz-adv-x="1615" 
d="M1219 0q106 -9 158.5 -76t43.5 -162q-3 -35 -18.5 -66.5t-35.5 -51.5t-39.5 -35.5t-32.5 -22.5l-13 -6q40 30 52.5 75.5t-6.5 80.5t-62 39q-44 4 -103 -19.5t-121 -58t-130.5 -69t-153.5 -54.5t-168 -12q-169 16 -272 141.5t-85 331.5q1 -35 11.5 -74t31.5 -79t50.5 -72
t72.5 -52t93 -20q64 0 140.5 29t147.5 69.5t143.5 80t150.5 64.5t145 19zM899 0q53 32 76 57q98 107 108 398q9 161 9 313q0 67 -2 147.5t-4 127.5l-3 47q-3 102 -19.5 181.5t-35.5 123t-48.5 77t-44.5 43t-38 21.5q33 -3 79 -16t108 -42t122.5 -69t120.5 -102.5t105.5 -137
t73.5 -179t28 -222.5q0 -114 -28 -216t-73.5 -176.5t-105 -138t-120 -104.5t-122 -71t-107.5 -44.5t-79 -17.5zM717 0q-53 32 -76 57q-99 106 -109 398q-8 161 -8 313q0 67 2 147.5t4 127.5l2 47q3 102 19.5 181.5t35.5 123t49 77t45 43t38 21.5q-34 -3 -80 -16t-108 -42
t-122.5 -69t-120 -102.5t-105 -137t-73.5 -179t-28 -222.5q0 -114 28 -216t73.5 -176.5t105 -138t120 -104.5t122 -71t107.5 -44.5t79 -17.5z" />
    <glyph glyph-name="R" unicode="R" horiz-adv-x="1492" 
d="M1391 0q-236 -18 -353.5 56.5t-126.5 265.5q-2 47 -2 124q0 121 -67 212t-160 122q187 27 197 224q6 77 6 153l-6 154q-3 60 -22 106t-46 69.5t-50 35t-44 14.5q106 0 196 -23t151 -61t104 -88t63 -102.5t20 -106.5q0 -161 -123.5 -259.5t-355.5 -115.5q240 -16 380 -123
t140 -301q0 -166 6 -227t29 -90q13 -16 29 -25.5t26 -11.5zM145 31l-43 -31h451l-37 31v1505h-414l43 -29v-1476z" />
    <glyph glyph-name="S" unicode="S" horiz-adv-x="1316" 
d="M1124 1536l2 -512l-5.5 16.5t-20.5 44t-39.5 67.5t-64.5 84.5t-92.5 98t-126 103.5t-163.5 106q18 -5 49 -13t112.5 -23.5t146.5 -21t125.5 5.5t76.5 44zM705 -8q-93 44 -174.5 101.5t-137 114.5t-101 115.5t-72.5 108.5t-45 89.5t-25 62.5l-7 22l7 -633q19 50 107 64.5
t189 1t174 -27.5t85 -19zM840 -8q71 15 135 49.5t119 88t87.5 133.5t32.5 175q0 96 -31 175.5t-94 144t-146 116t-200 103.5q-183 81 -230 109q-85 51 -125 126q-10 19 -19 41q-23 64 -19 125t34 109t75 61q-107 -9 -194.5 -78t-131.5 -179.5t-27 -231.5q11 -73 34.5 -129.5
t70 -111.5t124.5 -104t191 -96q186 -77 266.5 -126t129.5 -123q38 -66 38.5 -140t-33 -142t-87.5 -95z" />
    <glyph glyph-name="T" unicode="T" horiz-adv-x="1562" 
d="M971 31l39 -31h-453l43 31v1505h371v-1505zM485 1536h-383v-557q5 33 21.5 88t49.5 130.5t75 142.5t105 122.5t132 73.5zM1077 1536h383v-557q-5 34 -21 88t-48.5 130t-74.5 143t-105 122.5t-134 73.5z" />
    <glyph glyph-name="U" unicode="U" horiz-adv-x="1519" 
d="M514 395q0 -76 12 -133.5t31.5 -92.5t47.5 -56.5t57 -28.5t62.5 -5t61.5 10t56 20q-5 -5 -14.5 -13t-41 -28t-66 -35.5t-87.5 -28t-107 -12.5q-86 0 -151.5 22t-119.5 73t-83 145t-29 227v1046l-41 31h412v-1141zM1417 0l-43 31v1505h-411l43 -31v-1306q0 -83 57.5 -141
t140.5 -58h213z" />
    <glyph glyph-name="V" unicode="V" horiz-adv-x="1638" 
d="M1239 1098q10 95 0.5 167.5t-31.5 123.5t-44.5 84t-39.5 48l-18 15h430q-58 -21 -110 -73.5t-84.5 -113t-57 -118t-34.5 -95.5zM102 1536h465l-28 -31l403 -1061l139 199l-172 -643h-202l-568 1505z" />
    <glyph glyph-name="W" unicode="W" horiz-adv-x="2162" 
d="M1702 723l-103 -150l-319 934l27 29h-469l36 -31l504 -1505h176zM973 672l-105 -150l-321 983l26 31h-471l37 -31l498 -1505h166zM1628 1536h432q-52 -20 -99.5 -77t-78 -124t-53.5 -131t-33 -106l-10 -43q4 79 -3 148t-20.5 116.5t-31 86.5t-35.5 62.5t-33.5 39.5
t-24.5 22z" />
    <glyph glyph-name="X" unicode="X" horiz-adv-x="1634" 
d="M532 0l-13 9q-57 54 -41 263q6 83 24 187q-6 -14 -18 -37.5t-52 -88.5t-83.5 -121t-111 -117.5t-135.5 -94.5h430zM1057 0h434l-879 1505l19 31h-498l45 -31zM1071 1536q4 -1 10.5 -4.5t23.5 -17.5t30.5 -33.5t25.5 -56.5t14.5 -82t-8.5 -114t-37 -149q8 16 23.5 42.5
t61.5 97.5t91.5 129t108 114t117.5 74h-461z" />
    <glyph glyph-name="Y" unicode="Y" horiz-adv-x="1589" 
d="M1006 0l-41 31v731l-394 743l25 31h-494l41 -31l451 -852v-622l-43 -31h455zM1116 1098q8 16 23 42.5t59.5 95.5t87.5 125t99 108.5t102 66.5h-406q3 -2 9 -5.5t20.5 -19.5t25.5 -36t20 -56t9.5 -79t-11.5 -106.5t-38 -135.5z" />
    <glyph glyph-name="Z" unicode="Z" horiz-adv-x="1464" 
d="M952 1536h410l-848 -1536h-412zM725 1536h-561v-496q24 105 86 195t143.5 149.5t165.5 97.5t166 54zM1329 567q-6 -45 -29 -102t-69 -125.5t-107.5 -131t-154 -119t-199.5 -89.5h559v567z" />
    <glyph glyph-name="bracketleft" unicode="[" horiz-adv-x="460" 
d="M82 1780v-2032h420v21h-201v1990h201v21h-420z" />
    <glyph glyph-name="bracketright" unicode="]" horiz-adv-x="458" 
d="M377 1780v-2032h-418v21h201v1990h-201v21h418z" />
    <glyph glyph-name="underscore" unicode="_" horiz-adv-x="1163" 
d="M61 0v25h1041v-25h-1041z" />
    <glyph glyph-name="a" unicode="a" horiz-adv-x="1181" 
d="M1040 76q8 -6 16 -10.5t15.5 -6t14.5 -2t13 0.5t10.5 2t7.5 2l3 1q-64 -46 -144 -63.5t-151 -3t-119.5 73.5t-48.5 155v725q0 36 -11.5 64.5t-28.5 43.5t-34 25t-29 13l-11 2q89 0 161 -16t119.5 -41t83 -63.5t54.5 -75.5t30 -85t14 -84.5t3 -81.5v-450q0 -101 32 -125z
M346 1042q72 0 122 -50t50 -122q0 -71 -50 -121.5t-122 -50.5t-123 50.5t-51 121.5q0 72 51 122t123 50zM451 80q14 -28 35 -46t35 -22l14 -4q-17 -4 -46 -7t-72.5 -2t-87.5 7.5t-89 26.5t-79.5 50t-56.5 81.5t-22 118.5q0 53 19 97t48.5 73t71 51t80.5 33.5t83 18.5t73.5 9
t56.5 2q-71 -28 -84 -112q-12 -85 -12 -181q0 -119 33 -194z" />
    <glyph glyph-name="b" unicode="b" horiz-adv-x="1265" 
d="M608 1071q46 19 100 21t109 -14t108.5 -45.5t100 -78t82 -108t56 -138t20.5 -165.5q0 -79 -14.5 -149.5t-40.5 -126t-61 -101.5t-76 -78.5t-86 -55t-91 -32.5t-91 -9.5t-85 11.5q119 0 135 258q8 152 8 285q0 174 -8 286q-11 140 -55.5 192.5t-110.5 47.5zM473 207
q0 -44 5 -78.5t12 -52.5t15 -29.5t12.5 -14.5t6.5 -3q-23 6 -63.5 27.5t-84.5 38t-87 16.5q-33 0 -62.5 -14.5t-48 -35.5t-32 -42t-19.5 -35l-6 -15v1544l-39 23h391v-1329z" />
    <glyph glyph-name="c" unicode="c" horiz-adv-x="1085" 
d="M844 63q-3 -3 -10 -7.5t-30.5 -17t-50.5 -22t-71 -17t-92 -7.5q-98 0 -189 39t-162 108t-114 174t-43 228q0 118 44.5 222.5t115 174.5t155.5 112.5t168 47.5q-35 -17 -55.5 -66t-27 -95t-11.5 -122q-4 -78 -4 -274q0 -137 18 -260q13 -79 48 -133t82.5 -76.5t106.5 -26
t122 17.5zM1004 1112v-567q-6 17 -16.5 45.5t-46 106.5t-74 145.5t-98 141.5t-120.5 114q15 -2 54.5 -12.5t79.5 -17.5t75 -7q42 0 90 14.5t56 36.5z" />
    <glyph glyph-name="d" unicode="d" horiz-adv-x="1273" 
d="M1192 0h-391v1509l-39 27h391v-1507zM82 547q0 86 20.5 164.5t56 138t82 108.5t100 79.5t108.5 46.5t108.5 13.5t99.5 -22.5q-25 5 -50 -3t-50.5 -31.5t-43.5 -74.5t-24 -124q-8 -115 -8 -293q0 -137 8 -289q8 -136 56 -191t104 -46q-53 -25 -116 -25.5t-125.5 21.5
t-121.5 69t-104 111.5t-72.5 155t-27.5 192.5z" />
    <glyph glyph-name="e" unicode="e" horiz-adv-x="1163" 
d="M643 1098q68 -5 142.5 -42t141.5 -100t110.5 -162t43.5 -214h-467l115 59v14q0 104 -4 162q-1 15 -2 46t-1.5 45t-2 39.5t-4 37.5t-6.5 31t-9.5 29.5t-13.5 22.5t-19 19.5t-24 12.5zM844 63q-4 -3 -11 -7.5t-31.5 -17t-51.5 -22t-70.5 -17t-89.5 -7.5q-98 0 -189 39
t-162 108t-114 174t-43 228q0 118 44.5 222.5t115 174.5t155.5 112.5t168 47.5q-35 -17 -55.5 -66t-27 -95t-11.5 -122q-4 -78 -4 -274q0 -137 18 -260q24 -150 125 -204.5t234 -13.5z" />
    <glyph glyph-name="f" unicode="f" horiz-adv-x="1009" 
d="M557 784q8 3 20.5 8.5t47.5 24.5t64 41t59 58t43 75v-416q-16 41 -46 77.5t-61.5 59.5t-60.5 40t-47 24zM657 1536q-4 0 -10.5 -0.5t-25.5 -6.5t-36 -16.5t-38 -33t-36 -53t-25.5 -80.5t-10.5 -111v-1206l39 -29h-432l41 31v1005q0 112 29.5 200t76.5 139.5t104 87.5
t114 49.5t104 20t77 5.5zM928 1290q0 69 -49 117.5t-119 48.5q-69 0 -118.5 -48.5t-49.5 -117.5t49.5 -118.5t118.5 -49.5q70 0 119 49.5t49 118.5z" />
    <glyph glyph-name="g" unicode="g" horiz-adv-x="1120" 
d="M573 268q267 -38 386.5 -123t119.5 -251q0 -158 -116.5 -259t-296.5 -122q94 25 158.5 81t64.5 130q0 89 -63 142.5t-236 82.5q-231 45 -258 51q-94 -72 -78 -215q11 -102 80 -173t203 -97q-122 3 -213 30t-142 71.5t-75.5 96.5t-24.5 111q0 62 42 118.5t109 82.5
q-172 62 -172 231q0 132 129 201q-3 -3 -7.5 -8.5t-10.5 -21t-2 -30.5q4 -19 17.5 -32t52.5 -29.5t121.5 -33t211.5 -34.5zM778 1493q72 0 122 -50t50 -122q0 -71 -50 -121.5t-122 -50.5t-123 50.5t-51 121.5q0 72 51 122t123 50zM516 360q-12 7 -19 14t-19 33t-19 66
q-19 90 -19 256q0 139 19 250q8 54 20.5 82.5t36.5 36.5q-68 -4 -135 -30.5t-122 -72t-89.5 -115t-34.5 -151.5q0 -83 35.5 -152.5t92.5 -113.5t122 -70t131 -33zM1012 729q0 81 -37 150.5t-95.5 114.5t-124.5 72t-130 32q23 -8 36 -36.5t25 -82.5q14 -98 14 -250
q0 -189 -14 -256q-16 -60 -29.5 -82t-31.5 -31q51 5 103.5 22t103.5 48t91 72.5t64.5 100.5t24.5 126z" />
    <glyph glyph-name="h" unicode="h" horiz-adv-x="1241" 
d="M121 1513v-1484l-39 -29h430l-39 29v1507h-391zM733 0l41 29v886q0 44 -18.5 71t-45 34.5t-53 8.5t-45.5 -3l-18 -4q2 1 5 4t14 10.5t23 14.5t30.5 16.5t37 17t42 14t47 9.5t51 2.5t53.5 -6.5q114 -24 169.5 -98t55.5 -181v-796l37 -29h-426z" />
    <glyph glyph-name="i" unicode="i" horiz-adv-x="593" 
d="M121 1075v-1046l-39 -29h430l-39 29v1069h-391zM473 1386q0 71 -51 122t-123 51q-70 0 -121 -51t-51 -122q0 -72 50.5 -123t121.5 -51q72 0 123 51t51 123z" />
    <glyph glyph-name="j" unicode="j" horiz-adv-x="544" 
d="M463 1098v-1155q0 -80 -36 -148.5t-90 -111.5t-118.5 -73t-120.5 -43t-98 -13q16 5 30 13.5t24.5 22.5t18.5 27t14 36.5t10 40t7 49t4 52.5t2 60.5t1 63.5v71v1085l-39 23h391zM459 1384q0 71 -50 121.5t-122 50.5t-122 -50.5t-50 -121.5q0 -72 50 -122t122 -50t122 50
t50 122z" />
    <glyph glyph-name="k" unicode="k" horiz-adv-x="1312" 
d="M1182 1098q-58 -11 -116.5 -38.5t-101 -59t-76.5 -61.5t-52 -49l-17 -20q17 51 13 89t-22.5 64.5t-39 43t-36.5 23.5l-17 8h465zM778 0l31 29l-270 534l247 250l445 -813h-453zM121 1513v-1484l-39 -29h430l-39 29v1507h-391z" />
    <glyph glyph-name="l" unicode="l" horiz-adv-x="593" 
d="M121 1513v-1484l-39 -29h430l-39 29v1507h-391z" />
    <glyph glyph-name="m" unicode="m" horiz-adv-x="1867" 
d="M1356 0l43 29v886q0 47 -20.5 75.5t-50.5 35t-59.5 7t-50.5 -4.5l-20 -6q2 1 5.5 4t16 10.5t25.5 14.5t33.5 16.5t40.5 17t45.5 14t50 9.5t52.5 2.5t55 -6.5q114 -24 169.5 -98t55.5 -181v-796l39 -29h-430zM733 0l41 29v886q0 46 -18.5 74t-45 35t-53 7.5t-45.5 -4.5
l-18 -5q2 1 5 4t14 10.5t23 14.5t30.5 16.5t37 17t42 14t47 9.5t51 2.5t53.5 -6.5q114 -24 169.5 -98t55.5 -181v-796l37 -29h-426zM121 1075v-1046l-39 -29h430l-39 29v1069h-391z" />
    <glyph glyph-name="n" unicode="n" horiz-adv-x="1241" 
d="M121 1075v-1046l-39 -29h430l-39 29v1069h-391zM733 0l41 29v886q0 46 -18.5 74t-45 35t-53 7.5t-45.5 -4.5l-18 -5q2 1 5 4t14 10.5t23 14.5t30.5 16.5t37 17t42 14t47 9.5t51 2.5t53.5 -6.5q114 -24 169.5 -98t55.5 -181v-796l37 -29h-426z" />
    <glyph glyph-name="o" unicode="o" horiz-adv-x="1259" 
d="M571 -10q-22 15 -32 23t-29.5 46.5t-30.5 98.5q-20 113 -20 387q0 229 20 375q21 146 92 178q-56 -5 -120.5 -30.5t-130 -74t-118.5 -112t-86.5 -151.5t-33.5 -185q0 -99 33 -187.5t85.5 -150.5t118.5 -110t130 -73.5t122 -33.5zM688 -10q22 15 32 23t29.5 46.5
t30.5 98.5q21 118 21 387q0 222 -21 375q-21 146 -92 178q56 -5 120.5 -30.5t130.5 -74t119 -112t86.5 -151.5t33.5 -185q0 -99 -33 -187.5t-85.5 -150.5t-118.5 -110t-130.5 -73.5t-122.5 -33.5z" />
    <glyph glyph-name="p" unicode="p" horiz-adv-x="1280" 
d="M82 -455l39 29v1501l-39 23h391v-1524l39 -29h-430zM627 23q25 -4 50 5t50 33.5t42.5 76t21.5 122.5q10 190 10 289q0 150 -10 293q-6 73 -25 124.5t-45 75.5t-52 32.5t-51 2.5q51 26 114 26.5t127.5 -22.5t125.5 -71.5t108 -113.5t76 -156t29 -193t-27.5 -192.5
t-73 -155t-105 -111.5t-122.5 -69t-126.5 -21.5t-116.5 25.5z" />
    <glyph glyph-name="q" unicode="q" horiz-adv-x="1280" 
d="M489 260q4 -71 21.5 -122.5t42.5 -76t50 -33.5t50 -5q-53 -25 -116.5 -25.5t-126.5 21.5t-122.5 69t-105 111.5t-73 155t-27.5 192.5t29 193t76 156t108 113.5t125.5 71.5t127.5 22.5t114 -26.5q-25 6 -51 -2.5t-52 -32.5t-45 -75.5t-25 -124.5q-10 -143 -10 -293
q0 -99 10 -289zM1159 -426l39 -29h-430l39 29v1524h391l-39 -23v-1501z" />
    <glyph glyph-name="r" unicode="r" horiz-adv-x="999" 
d="M82 0l39 29v1046l-39 23h391v-1069l39 -29h-430zM918 881q0 72 -52.5 123t-124.5 51t-123 -51t-51 -123t51 -124t123 -52t124.5 52t52.5 124z" />
    <glyph glyph-name="s" unicode="s" horiz-adv-x="1007" 
d="M602 715q101 -46 137 -68q187 -115 187 -299q0 -141 -86 -236t-232 -120q2 1 6 2.5t15 8.5t19.5 16.5t20 25.5t16 37t8 50t-4.5 65q-4 24 -13.5 44.5t-30 39t-36.5 31.5t-50 29.5t-52 24.5t-62 26.5t-61 25.5q-46 21 -78 37.5t-78 50t-74.5 69t-49.5 90.5t-21 119
q0 51 16.5 101.5t49 95.5t89 77t128.5 40q-2 0 -5.5 -1t-13.5 -6t-18.5 -11.5t-17.5 -19t-13.5 -28t-4 -39t8.5 -51.5q15 -49 65.5 -93t91.5 -65.5t127 -60.5q11 -5 17 -8zM481 0q-109 75 -192.5 160.5t-127.5 156t-69 138.5v-463q18 27 64.5 38t100 7t105 -12t85.5 -17z
M860 702l-2 392q-13 -23 -57 -31t-96.5 -2.5t-103.5 14t-85 17.5l-35 8q62 -36 124 -90t106 -105.5t79 -98.5t52 -76z" />
    <glyph glyph-name="t" unicode="t" horiz-adv-x="901" 
d="M473 184q1 -44 19.5 -74t45 -41.5t52.5 -16t44 -2.5l19 1q-19 -9 -51 -22.5t-113.5 -29.5t-142.5 -3q-114 24 -169.5 97.5t-55.5 178.5v799l-39 27q7 1 19.5 4.5t48.5 16t69.5 29t76.5 47t76.5 66t61.5 89t39 114.5v-1280zM557 1098h262v-312q-98 189 -262 312z" />
    <glyph glyph-name="u" unicode="u" horiz-adv-x="1239" 
d="M473 186q0 -27 5.5 -47.5t14.5 -32.5t21 -20.5t25.5 -11.5t26.5 -3.5t25.5 1.5t21.5 4t15 4l7 2q-2 -2 -5 -4.5t-13.5 -10t-22 -15t-28.5 -17t-35 -17t-40.5 -14t-44.5 -10t-47.5 -3t-50.5 6.5q-112 25 -169.5 99.5t-57.5 178.5v799l-39 23h391v-912zM766 0v1075l-39 23
h391v-1069l39 -29h-391z" />
    <glyph glyph-name="v" unicode="v" horiz-adv-x="1226" 
d="M758 307l104 144l-125 -451h-217l-403 1069l-35 29h434l-31 -29zM1145 1098h-336q3 -1 8 -3.5t21 -13.5t27.5 -28t28.5 -48t24 -73t13 -102t-3 -136q31 107 65 187.5t60 120t47.5 63.5t33.5 29z" />
    <glyph glyph-name="w" unicode="w" horiz-adv-x="1744" 
d="M784 526l-84 -114l-221 657l31 29h-428l35 -29l375 -1069h151zM1311 422l86 117l-140 -539h-151l-379 1069l-35 29h428l-26 -29zM1663 1098h-336l7.5 -2.5t18.5 -11t26 -24t27 -43.5t25.5 -66.5t17 -96t5.5 -129.5q29 95 61.5 168.5t57.5 110.5t46 60t33 28z" />
    <glyph glyph-name="x" unicode="x" horiz-adv-x="1259" 
d="M520 1069l588 -1020l59 -49h-487l25 49l-584 1020l-39 29h465zM1178 1098h-344q4 -2 11 -7t20.5 -29t20 -57t1 -97t-28.5 -144q8 12 21.5 31.5t53.5 71t77 93.5t84.5 83t83.5 55zM451 0q-4 2 -10 6.5t-19 27t-19.5 54.5t-3 94t22.5 140q-6 -10 -16.5 -26t-46 -61
t-73 -84.5t-93.5 -82.5t-111 -68h369z" />
    <glyph glyph-name="y" unicode="y" horiz-adv-x="1261" 
d="M492 1069l323 -659l-174 -410l-545 1069l-35 29h457zM782 1098h398q-44 -15 -86.5 -59.5t-71.5 -96t-52.5 -101.5t-34.5 -83l-11 -33q6 87 -7 157.5t-34.5 109t-44.5 64t-40 34.5zM528 -131q0 69 -48.5 117.5t-117.5 48.5t-118 -48.5t-49 -117.5q0 -68 49 -117t118 -49
t117.5 49t48.5 117z" />
    <glyph glyph-name="z" unicode="z" horiz-adv-x="1189" 
d="M717 1098h391l-629 -1098h-397zM510 1098h-375v-416q55 155 163.5 272t211.5 144zM1055 449q-17 -89 -65.5 -176t-133.5 -162.5t-190 -110.5h389v449z" />
    <glyph glyph-name="braceleft" unicode="{" horiz-adv-x="616" 
d="M467 29q0 -57 10.5 -103t27 -73.5t37 -47t41 -28t37 -13t26.5 -4.5h11q-22 -8 -59.5 -8.5t-86 7t-98 32t-92.5 61t-72.5 99.5t-35.5 143q-8 104 21.5 275.5t29.5 228.5q0 33 -10 60.5t-26 44.5t-35.5 30t-39 19.5t-35.5 10t-26 4.5l-10 1q7 0 19.5 1.5t44 12t55.5 26.5
t43.5 50.5t19.5 79.5q0 57 -29.5 229.5t-21.5 276.5q6 80 35.5 142.5t72.5 99t92.5 60.5t98 31.5t86 7t59.5 -8.5h-11t-26.5 -4.5t-37.5 -13t-40 -28t-37.5 -47t-26.5 -73.5t-11 -103q0 -83 14.5 -210t14.5 -203q0 -53 -18 -99.5t-47.5 -79t-64.5 -59t-70 -42.5t-64.5 -27
t-47.5 -15l-18 -4q7 -1 19 -4t46 -15t65.5 -27t69.5 -42.5t65 -59t46 -78.5t19 -100q0 -76 -14.5 -203t-14.5 -210z" />
    <glyph glyph-name="braceright" unicode="}" horiz-adv-x="618" 
d="M150 27q0 -57 -10.5 -103t-27.5 -73.5t-37.5 -47t-40.5 -28t-37 -13t-27 -4.5h-11q22 -8 60 -8.5t86.5 7t98 32t92.5 61t72.5 99.5t34.5 143q8 102 -21.5 274.5t-29.5 229.5q0 33 10 60.5t26.5 44.5t36 30t39.5 19.5t36.5 10t26.5 4.5l10 1q-8 0 -20 1.5t-44 12
t-56.5 26.5t-44.5 50.5t-20 79.5q0 57 29.5 229.5t21.5 274.5q-5 80 -34.5 143t-72.5 99.5t-92.5 61t-98 32t-86.5 7t-60 -8.5h11t26.5 -4.5t38 -13t40.5 -28t37.5 -47t26.5 -73.5t11 -103q0 -83 -14.5 -210t-14.5 -203q0 -53 18 -99.5t47.5 -79t64.5 -59t70 -42.5t64.5 -27
t47.5 -15l18 -4q-7 -1 -19 -4t-46 -15t-65.5 -27t-69.5 -42.5t-65 -59t-46 -78.5t-19 -100q0 -76 14.5 -203t14.5 -210z" />
    <glyph glyph-name="asciitilde" unicode="~" horiz-adv-x="903" 
d="M821 635q-1 -2 -3.5 -5.5t-11 -13t-18 -17.5t-25 -16t-31.5 -12t-37.5 -2t-43.5 11q-33 13 -110 61.5t-138 67.5q-74 19 -131.5 3.5t-99 -55t-64 -76.5t-26.5 -61q2 5 6.5 12t22 23.5t39 26t59.5 9t82 -17.5q46 -19 113.5 -59t111.5 -57q64 -23 114 -14.5t86 40t59.5 65
t34.5 60.5z" />
    <glyph glyph-name="exclamdown" unicode="&#xa1;" horiz-adv-x="505" 
d="M254 752q71 0 121.5 51t50.5 123q0 70 -51 121t-121 51q-72 0 -122 -50.5t-50 -121.5q0 -72 50 -123t122 -51zM438 -115q5 -44 6 -81t0 -52l-2 -14q-9 -74 -63 -125t-125 -51h-2q-71 0 -124 51t-62 125q-8 49 2 149q5 60 51.5 236.5t90.5 323.5l44 147q174 -576 184 -709
z" />
    <glyph glyph-name="guillemotleft" unicode="&#xab;" horiz-adv-x="1204" 
d="M1130 356l13 17l-502 385l502 381l-13 16l-522 -397zM584 356l12 17l-500 385l500 381l-12 16l-523 -397z" />
    <glyph glyph-name="questiondown" unicode="&#xbf;" horiz-adv-x="1120" 
d="M467 926q0 -72 50.5 -123t121.5 -51q72 0 123 51t51 123q0 71 -51 121.5t-123 50.5q-71 0 -121.5 -51t-50.5 -121zM684 -90q0 -78 54.5 -133.5t131.5 -55.5q78 0 133.5 55.5t55.5 133.5q0 77 -55.5 131.5t-133.5 54.5q-76 0 -131 -55t-55 -131zM61 -63q0 82 46.5 154.5
t126.5 134.5t165.5 117t186.5 127.5t166 139.5l-16 -30q-16 -29 -41.5 -79t-57 -113.5t-62.5 -135t-56.5 -140t-41.5 -133.5t-16 -110q0 -126 63 -215q49 -73 129 -92q-127 -3 -231 20q-106 24 -186 72q-76 43 -127 117q-48 76 -48 166z" />
    <glyph glyph-name="Agrave" unicode="&#xc0;" horiz-adv-x="1568" 
d="M1016 0h450l-39 31l-553 1505h-186l-94 -303l221 -578l-344 2q54 -7 119.5 -29.5t133 -57t122 -86.5t76.5 -109l129 -344zM485 0q-3 1 -8 4.5t-19 17.5t-26.5 32.5t-27.5 52t-25 74t-15.5 101t-3.5 130.5q-4 -14 -12 -38t-34.5 -87t-55 -115t-71 -103t-85.5 -69h383z
M981 1686l-432 278l12 16l432 -276z" />
    <glyph glyph-name="Aacute" unicode="&#xc1;" horiz-adv-x="1568" 
d="M1016 0h450l-39 31l-553 1505h-186l-94 -303l221 -578l-344 2q54 -7 119.5 -29.5t133 -57t122 -86.5t76.5 -109l129 -344zM485 0q-3 1 -8 4.5t-19 17.5t-26.5 32.5t-27.5 52t-25 74t-15.5 101t-3.5 130.5q-4 -14 -12 -38t-34.5 -87t-55 -115t-71 -103t-85.5 -69h383z
M569 1686l435 280l-11 16l-434 -278z" />
    <glyph glyph-name="Acircumflex" unicode="&#xc2;" horiz-adv-x="1568" 
d="M1016 0h450l-39 31l-553 1505h-186l-94 -303l221 -578l-344 2q54 -7 119.5 -29.5t133 -57t122 -86.5t76.5 -109l129 -344zM485 0q-3 1 -8 4.5t-19 17.5t-26.5 32.5t-27.5 52t-25 74t-15.5 101t-3.5 130.5q-4 -14 -12 -38t-34.5 -87t-55 -115t-71 -103t-85.5 -69h383z
M383 1655l393 295l391 -295l13 16l-404 303l-405 -303z" />
    <glyph glyph-name="Atilde" unicode="&#xc3;" horiz-adv-x="1568" 
d="M1016 0h450l-39 31l-553 1505h-186l-94 -303l221 -578l-344 2q54 -7 119.5 -29.5t133 -57t122 -86.5t76.5 -109l129 -344zM485 0q-3 1 -8 4.5t-19 17.5t-26.5 32.5t-27.5 52t-25 74t-15.5 101t-3.5 130.5q-4 -14 -12 -38t-34.5 -87t-55 -115t-71 -103t-85.5 -69h383z
M1145 1901q-1 -2 -3.5 -5.5t-11 -13t-18 -17.5t-25 -16t-32 -12t-38 -2.5t-44.5 10.5q-27 12 -105.5 61t-140.5 68q-74 19 -132 4t-99.5 -54.5t-63.5 -75.5t-26 -60q2 5 6.5 12t21.5 23.5t38.5 25.5t59.5 8.5t82 -18.5q46 -18 113.5 -58t110.5 -57q65 -23 115.5 -14.5
t86.5 39.5t59.5 65t34.5 60z" />
    <glyph glyph-name="Adieresis" unicode="&#xc4;" horiz-adv-x="1568" 
d="M1016 0h450l-39 31l-553 1505h-186l-94 -303l221 -578l-344 2q54 -7 119.5 -29.5t133 -57t122 -86.5t76.5 -109l129 -344zM485 0q-3 1 -8 4.5t-19 17.5t-26.5 32.5t-27.5 52t-25 74t-15.5 101t-3.5 130.5q-4 -14 -12 -38t-34.5 -87t-55 -115t-71 -103t-85.5 -69h383z
M680 1802q0 71 -51 121.5t-123 50.5q-70 0 -121 -51t-51 -121q0 -72 50.5 -123t121.5 -51q72 0 123 51t51 123zM1219 1802q0 70 -50.5 121t-121.5 51q-72 0 -123.5 -50.5t-51.5 -121.5q0 -72 51.5 -123t123.5 -51q71 0 121.5 51t50.5 123z" />
    <glyph glyph-name="Aring" unicode="&#xc5;" horiz-adv-x="1568" 
d="M1016 0h450l-39 31l-553 1505h-186l-94 -303l221 -578l-344 2q54 -7 119.5 -29.5t133 -57t122 -86.5t76.5 -109l129 -344zM485 0q-3 1 -8 4.5t-19 17.5t-26.5 32.5t-27.5 52t-25 74t-15.5 101t-3.5 130.5q-4 -14 -12 -38t-34.5 -87t-55 -115t-71 -103t-85.5 -69h383z
M776 1608q75 0 128.5 54t53.5 130q0 75 -53.5 128.5t-128.5 53.5q-76 0 -130 -53.5t-54 -128.5q0 -76 54 -130t130 -54zM776 1954q66 0 114 -48t48 -114q0 -67 -48 -115.5t-114 -48.5q-68 0 -116 48t-48 116q0 66 48.5 114t115.5 48z" />
    <glyph glyph-name="AE" unicode="&#xc6;" horiz-adv-x="2246" 
d="M535 508q-69 -229 -65.5 -342t42.5 -140l39 -26h-449q50 18 113.5 77.5t117.5 130.5t101 139.5t74 114.5zM1040 1333l107 203h266v-1536h-414l41 31v329q0 73 -53 139.5t-131.5 108t-163.5 54.5h348v671zM1585 0q34 10 58.5 17.5t65 23t71 30.5t71.5 39t72.5 50t67 62.5
t62.5 77t51 93t40 111.5v-504h-559zM1804 457q-1 8 -10 33t-32.5 67t-55 82.5t-83.5 78t-112 54.5q60 18 112.5 56t84 79t54.5 79t32 62l10 25v-616zM2046 1536h-463q72 -19 138 -59.5t113.5 -91t87 -106t65 -109t40.5 -94t19 -66.5v526z" />
    <glyph glyph-name="Ccedilla" unicode="&#xc7;" horiz-adv-x="1443" 
d="M924 0q75 45 165 159.5t158 241t94 220.5l-4 -621q-36 50 -94.5 62.5t-107.5 -1t-116 -35.5t-95 -26zM1337 1536l4 -592q-40 146 -184.5 335.5t-277.5 256.5q27 -3 101.5 -24.5t132 -34.5t123 -1.5t101.5 60.5zM754 0q-30 13 -49.5 24.5t-54 45.5t-56.5 77t-41 120
t-23 175q-8 162 -8 314q0 67 2 147t4 127l2 47q10 373 179 459q-39 -4 -86.5 -17t-109.5 -41.5t-120 -68t-115.5 -102t-100 -139t-69 -183t-26.5 -229.5q0 -121 28.5 -225.5t74.5 -178.5t108 -134.5t124 -98t128.5 -64.5t116.5 -39t92 -16zM836 -78q-3 -5 -7.5 -14.5
t-3.5 -35t17 -46.5q14 -17 61.5 -50t69.5 -67q23 -43 19.5 -84t-28 -78.5t-49 -62.5t-45.5 -37q2 2 5.5 6.5t9 18.5t7 28.5t-4.5 36t-23 41.5q-20 23 -60 53.5t-59 53.5q-26 32 -26 68t18.5 64.5t40 53t40.5 37.5z" />
    <glyph glyph-name="Egrave" unicode="&#xc8;" horiz-adv-x="1341" 
d="M516 1536v-1536h-414l41 31v1474l-41 31h414zM680 0q34 10 58.5 17.5t65 23t71 30.5t71.5 39t72.5 50t67 62.5t62.5 77t51 93t40 111.5v-504h-559zM899 457q-1 8 -10 33t-32.5 67t-55 82.5t-83.5 78t-112 54.5q60 18 112.5 56t84 79t54.5 79t33 62l9 25v-616zM1141 1536
h-463q72 -19 138 -59.5t113.5 -91t87 -106t65 -109t40.5 -94t19 -66.5v526zM877 1686l-433 278l13 16l432 -276z" />
    <glyph glyph-name="Eacute" unicode="&#xc9;" horiz-adv-x="1341" 
d="M516 1536v-1536h-414l41 31v1474l-41 31h414zM680 0q34 10 58.5 17.5t65 23t71 30.5t71.5 39t72.5 50t67 62.5t62.5 77t51 93t40 111.5v-504h-559zM899 457q-1 8 -10 33t-32.5 67t-55 82.5t-83.5 78t-112 54.5q60 18 112.5 56t84 79t54.5 79t33 62l9 25v-616zM1141 1536
h-463q72 -19 138 -59.5t113.5 -91t87 -106t65 -109t40.5 -94t19 -66.5v526zM465 1686l434 280l-10 16l-434 -278z" />
    <glyph glyph-name="Ecircumflex" unicode="&#xca;" horiz-adv-x="1341" 
d="M516 1536v-1536h-414l41 31v1474l-41 31h414zM680 0q34 10 58.5 17.5t65 23t71 30.5t71.5 39t72.5 50t67 62.5t62.5 77t51 93t40 111.5v-504h-559zM899 457q-1 8 -10 33t-32.5 67t-55 82.5t-83.5 78t-112 54.5q60 18 112.5 56t84 79t54.5 79t33 62l9 25v-616zM1141 1536
h-463q72 -19 138 -59.5t113.5 -91t87 -106t65 -109t40.5 -94t19 -66.5v526zM279 1655l393 295l391 -295l12 16l-403 303l-406 -303z" />
    <glyph glyph-name="Edieresis" unicode="&#xcb;" horiz-adv-x="1341" 
d="M516 1536v-1536h-414l41 31v1474l-41 31h414zM680 0q34 10 58.5 17.5t65 23t71 30.5t71.5 39t72.5 50t67 62.5t62.5 77t51 93t40 111.5v-504h-559zM899 457q-1 8 -10 33t-32.5 67t-55 82.5t-83.5 78t-112 54.5q60 18 112.5 56t84 79t54.5 79t33 62l9 25v-616zM1141 1536
h-463q72 -19 138 -59.5t113.5 -91t87 -106t65 -109t40.5 -94t19 -66.5v526zM575 1802q0 71 -51 121.5t-123 50.5q-71 0 -121.5 -51t-50.5 -121q0 -72 50.5 -123t121.5 -51q72 0 123 51t51 123zM1114 1802q0 70 -51 121t-121 51q-72 0 -123 -50.5t-51 -121.5q0 -72 51 -123
t123 -51q71 0 121.5 51t50.5 123z" />
    <glyph glyph-name="Igrave" unicode="&#xcc;" horiz-adv-x="659" 
d="M557 0l-43 31v1474l43 31h-455l43 -31v-1474l-43 -31h455zM535 1686l-433 278l13 16l432 -276z" />
    <glyph glyph-name="Iacute" unicode="&#xcd;" horiz-adv-x="659" 
d="M557 0l-43 31v1474l43 31h-455l43 -31v-1474l-43 -31h455zM123 1686l434 280l-10 16l-434 -278z" />
    <glyph glyph-name="Icircumflex" unicode="&#xce;" horiz-adv-x="659" 
d="M557 0l-43 31v1474l43 31h-455l43 -31v-1474l-43 -31h455zM-63 1655l393 295l391 -295l12 16l-403 303l-406 -303z" />
    <glyph glyph-name="Idieresis" unicode="&#xcf;" horiz-adv-x="659" 
d="M557 0l-43 31v1474l43 31h-455l43 -31v-1474l-43 -31h455zM233 1802q0 71 -51 121.5t-123 50.5q-71 0 -121.5 -51t-50.5 -121q0 -72 50.5 -123t121.5 -51q72 0 123 51t51 123zM772 1802q0 70 -51 121t-121 51q-72 0 -123 -50.5t-51 -121.5q0 -72 51 -123t123 -51
q71 0 121.5 51t50.5 123z" />
    <glyph glyph-name="Eth" unicode="&#xd0;" horiz-adv-x="1671" 
d="M922 756h-252v-756h-414l43 31v725h-197v24h197v725l-43 31h414v-756h252v-24zM1589 756q0 118 -29.5 222t-76 179t-110 137.5t-126 102.5t-130.5 71t-116.5 45.5t-89.5 22.5q17 -9 21 -11t26 -15.5t32.5 -24t32.5 -33t34.5 -45t30 -58t27 -73.5t17 -89.5t9.5 -109.5
q8 -171 8 -321q0 -68 -2 -146.5t-4 -123.5l-2 -44q-4 -98 -23.5 -175t-42 -120t-58 -77t-55 -45t-49.5 -25q41 6 91.5 20t117 43t130 69t125.5 101t108.5 134t75 174t28.5 215z" />
    <glyph glyph-name="Ntilde" unicode="&#xd1;" horiz-adv-x="1648" 
d="M573 0q-51 35 -91.5 105.5t-62 146t-35.5 146t-18 116.5l-4 45q-1 -18 -4.5 -48t-20 -112t-38.5 -151t-64.5 -141.5t-95.5 -106.5h434zM1247 510l82 219l-20 -729h-172l-985 1505l-50 31h469zM1147 1536h399q-6 -3 -16 -9.5t-38 -38t-51 -75t-48 -127.5t-37 -188
q-10 77 -27 142.5t-36 109.5t-40 78.5t-39.5 54t-33.5 32.5t-24 17zM1268 1901q-1 -2 -3.5 -5.5t-11 -13t-18 -17.5t-25 -16t-32 -12t-38 -2.5t-44.5 10.5q-27 12 -105.5 61t-140.5 68q-74 19 -132 4t-100 -54t-64 -76t-26 -60q2 5 6.5 12t22 23.5t39 25.5t59.5 8.5
t82 -18.5q46 -18 113.5 -58t110.5 -57q65 -23 115.5 -14.5t86.5 39.5t59.5 65t34.5 60z" />
    <glyph glyph-name="Ograve" unicode="&#xd2;" horiz-adv-x="1615" 
d="M717 0q-53 32 -76 57q-99 106 -109 398q-8 161 -8 313q0 67 2 147.5t4 127.5l2 47q3 102 19.5 181.5t35.5 123t49 77t45 43t38 21.5q-34 -3 -80 -16t-108 -42t-122.5 -69t-120 -102.5t-105 -137t-73.5 -179t-28 -222.5q0 -114 28 -216t73.5 -176.5t105 -138t120 -104.5
t122 -71t107.5 -44.5t79 -17.5zM899 0q53 32 76 57q98 107 108 398q9 161 9 313q0 67 -2 147.5t-4 127.5l-3 47q-3 102 -19.5 181.5t-35.5 123t-48.5 77t-44.5 43t-38 21.5q33 -3 79 -16t108 -42t122.5 -69t120.5 -102.5t105.5 -137t73.5 -179t28 -222.5q0 -114 -28 -216
t-73.5 -176.5t-105 -138t-120 -104.5t-122 -71t-107.5 -44.5t-79 -17.5zM1006 1686l-433 278l13 16l432 -276z" />
    <glyph glyph-name="Oacute" unicode="&#xd3;" horiz-adv-x="1615" 
d="M717 0q-53 32 -76 57q-99 106 -109 398q-8 161 -8 313q0 67 2 147.5t4 127.5l2 47q3 102 19.5 181.5t35.5 123t49 77t45 43t38 21.5q-34 -3 -80 -16t-108 -42t-122.5 -69t-120 -102.5t-105 -137t-73.5 -179t-28 -222.5q0 -114 28 -216t73.5 -176.5t105 -138t120 -104.5
t122 -71t107.5 -44.5t79 -17.5zM899 0q53 32 76 57q98 107 108 398q9 161 9 313q0 67 -2 147.5t-4 127.5l-3 47q-3 102 -19.5 181.5t-35.5 123t-48.5 77t-44.5 43t-38 21.5q33 -3 79 -16t108 -42t122.5 -69t120.5 -102.5t105.5 -137t73.5 -179t28 -222.5q0 -114 -28 -216
t-73.5 -176.5t-105 -138t-120 -104.5t-122 -71t-107.5 -44.5t-79 -17.5zM594 1686l434 280l-10 16l-434 -278z" />
    <glyph glyph-name="Ocircumflex" unicode="&#xd4;" horiz-adv-x="1615" 
d="M717 0q-53 32 -76 57q-99 106 -109 398q-8 161 -8 313q0 67 2 147.5t4 127.5l2 47q3 102 19.5 181.5t35.5 123t49 77t45 43t38 21.5q-34 -3 -80 -16t-108 -42t-122.5 -69t-120 -102.5t-105 -137t-73.5 -179t-28 -222.5q0 -114 28 -216t73.5 -176.5t105 -138t120 -104.5
t122 -71t107.5 -44.5t79 -17.5zM899 0q53 32 76 57q98 107 108 398q9 161 9 313q0 67 -2 147.5t-4 127.5l-3 47q-3 102 -19.5 181.5t-35.5 123t-48.5 77t-44.5 43t-38 21.5q33 -3 79 -16t108 -42t122.5 -69t120.5 -102.5t105.5 -137t73.5 -179t28 -222.5q0 -114 -28 -216
t-73.5 -176.5t-105 -138t-120 -104.5t-122 -71t-107.5 -44.5t-79 -17.5zM408 1655l393 295l391 -295l12 16l-403 303l-406 -303z" />
    <glyph glyph-name="Otilde" unicode="&#xd5;" horiz-adv-x="1615" 
d="M717 0q-53 32 -76 57q-99 106 -109 398q-8 161 -8 313q0 67 2 147.5t4 127.5l2 47q3 102 19.5 181.5t35.5 123t49 77t45 43t38 21.5q-34 -3 -80 -16t-108 -42t-122.5 -69t-120 -102.5t-105 -137t-73.5 -179t-28 -222.5q0 -114 28 -216t73.5 -176.5t105 -138t120 -104.5
t122 -71t107.5 -44.5t79 -17.5zM899 0q53 32 76 57q98 107 108 398q9 161 9 313q0 67 -2 147.5t-4 127.5l-3 47q-3 102 -19.5 181.5t-35.5 123t-48.5 77t-44.5 43t-38 21.5q33 -3 79 -16t108 -42t122.5 -69t120.5 -102.5t105.5 -137t73.5 -179t28 -222.5q0 -114 -28 -216
t-73.5 -176.5t-105 -138t-120 -104.5t-122 -71t-107.5 -44.5t-79 -17.5zM1169 1901q-1 -2 -3.5 -5.5t-11 -13t-18 -17.5t-25 -16t-32 -12t-38 -2.5t-44.5 10.5q-27 12 -105 61t-140 68q-74 19 -132 4t-100 -54t-64 -76t-26 -60q2 5 6.5 12t22 23.5t39 25.5t59.5 8.5
t82 -18.5q46 -18 113 -58t110 -57q65 -23 115.5 -14.5t86.5 39.5t59.5 65t34.5 60z" />
    <glyph glyph-name="Odieresis" unicode="&#xd6;" horiz-adv-x="1615" 
d="M717 0q-53 32 -76 57q-99 106 -109 398q-8 161 -8 313q0 67 2 147.5t4 127.5l2 47q3 102 19.5 181.5t35.5 123t49 77t45 43t38 21.5q-34 -3 -80 -16t-108 -42t-122.5 -69t-120 -102.5t-105 -137t-73.5 -179t-28 -222.5q0 -114 28 -216t73.5 -176.5t105 -138t120 -104.5
t122 -71t107.5 -44.5t79 -17.5zM899 0q53 32 76 57q98 107 108 398q9 161 9 313q0 67 -2 147.5t-4 127.5l-3 47q-3 102 -19.5 181.5t-35.5 123t-48.5 77t-44.5 43t-38 21.5q33 -3 79 -16t108 -42t122.5 -69t120.5 -102.5t105.5 -137t73.5 -179t28 -222.5q0 -114 -28 -216
t-73.5 -176.5t-105 -138t-120 -104.5t-122 -71t-107.5 -44.5t-79 -17.5zM705 1802q0 71 -51.5 121.5t-123.5 50.5q-70 0 -121 -51t-51 -121q0 -72 50.5 -123t121.5 -51q72 0 123.5 51t51.5 123zM1243 1802q0 70 -50.5 121t-121.5 51q-72 0 -123 -50.5t-51 -121.5
q0 -72 51 -123t123 -51q71 0 121.5 51t50.5 123z" />
    <glyph glyph-name="multiply" unicode="&#xd7;" horiz-adv-x="1040" 
d="M958 1192l-423 -424l423 -424l-14 -14l-424 424l-424 -424l-14 14l424 424l-424 424l14 14l424 -424l424 424z" />
    <glyph glyph-name="Oslash" unicode="&#xd8;" horiz-adv-x="1617" 
d="M1100 1473q63 -31 120 -70.5t117 -102.5t103 -136.5t70.5 -176.5t27.5 -219q0 -114 -28 -216t-73.5 -176.5t-105 -138t-120 -104.5t-122 -71t-107.5 -44.5t-79 -17.5q53 32 76 57q98 107 108 398q9 161 9 313q0 67 -2 147.5t-4 127.5l-3 47q-3 151 -36 256l-465 -1207
q14 -32 31 -56.5t37.5 -41.5t30 -23t30.5 -18q-73 8 -162 49l-72 -186h-22l76 196q-64 31 -123.5 71.5t-121.5 104t-107 138.5t-74 177.5t-29 217.5q0 118 28 222.5t73.5 179t105 137t120 102.5t122.5 69t108 42t80 16q-23 -12 -38 -21.5t-45 -43t-49 -77t-35.5 -123
t-19.5 -181.5q-8 -172 -8 -322q0 -68 2 -146t4 -122l2 -45q5 -175 45 -289l465 1208q-16 40 -35 70.5t-41 49t-33.5 26t-29.5 16.5q78 -8 180 -55l56 145h22z" />
    <glyph glyph-name="Ugrave" unicode="&#xd9;" horiz-adv-x="1519" 
d="M514 395q0 -76 12 -133.5t31.5 -92.5t47.5 -56.5t57 -28.5t62.5 -5t61.5 10t56 20q-5 -5 -14.5 -13t-41 -28t-66 -35.5t-87.5 -28t-107 -12.5q-86 0 -151.5 22t-119.5 73t-83 145t-29 227v1046l-41 31h412v-1141zM1417 0l-43 31v1505h-411l43 -31v-1306q0 -83 57.5 -141
t140.5 -58h213zM952 1686l-432 278l12 16l433 -276z" />
    <glyph glyph-name="Uacute" unicode="&#xda;" horiz-adv-x="1519" 
d="M514 395q0 -76 12 -133.5t31.5 -92.5t47.5 -56.5t57 -28.5t62.5 -5t61.5 10t56 20q-5 -5 -14.5 -13t-41 -28t-66 -35.5t-87.5 -28t-107 -12.5q-86 0 -151.5 22t-119.5 73t-83 145t-29 227v1046l-41 31h412v-1141zM1417 0l-43 31v1505h-411l43 -31v-1306q0 -83 57.5 -141
t140.5 -58h213zM541 1686l434 280l-10 16l-435 -278z" />
    <glyph glyph-name="Ucircumflex" unicode="&#xdb;" horiz-adv-x="1519" 
d="M514 395q0 -76 12 -133.5t31.5 -92.5t47.5 -56.5t57 -28.5t62.5 -5t61.5 10t56 20q-5 -5 -14.5 -13t-41 -28t-66 -35.5t-87.5 -28t-107 -12.5q-86 0 -151.5 22t-119.5 73t-83 145t-29 227v1046l-41 31h412v-1141zM1417 0l-43 31v1505h-411l43 -31v-1306q0 -83 57.5 -141
t140.5 -58h213zM354 1655l394 295l391 -295l12 16l-403 303l-406 -303z" />
    <glyph glyph-name="Udieresis" unicode="&#xdc;" horiz-adv-x="1519" 
d="M514 395q0 -76 12 -133.5t31.5 -92.5t47.5 -56.5t57 -28.5t62.5 -5t61.5 10t56 20q-5 -5 -14.5 -13t-41 -28t-66 -35.5t-87.5 -28t-107 -12.5q-86 0 -151.5 22t-119.5 73t-83 145t-29 227v1046l-41 31h412v-1141zM1417 0l-43 31v1505h-411l43 -31v-1306q0 -83 57.5 -141
t140.5 -58h213zM651 1802q0 71 -51 121.5t-123 50.5q-71 0 -121.5 -51t-50.5 -121q0 -72 50.5 -123t121.5 -51q72 0 123 51t51 123zM1190 1802q0 70 -51 121t-121 51q-72 0 -123 -50.5t-51 -121.5q0 -72 51 -123t123 -51q71 0 121.5 51t50.5 123z" />
    <glyph glyph-name="Yacute" unicode="&#xdd;" horiz-adv-x="1589" 
d="M1006 0l-41 31v731l-394 743l25 31h-494l41 -31l451 -852v-622l-43 -31h455zM1116 1098q8 16 23 42.5t59.5 95.5t87.5 125t99 108.5t102 66.5h-406q3 -2 9 -5.5t20.5 -19.5t25.5 -36t20 -56t9.5 -79t-11.5 -106.5t-38 -135.5zM590 1686l434 280l-10 16l-434 -278z" />
    <glyph glyph-name="Thorn" unicode="&#xde;" horiz-adv-x="1376" 
d="M514 1505v-1474l43 -31h-455l43 31v1474l-43 31h455zM1274 784q0 77 -23 143t-60.5 112.5t-88 84t-102 61t-107.5 39.5t-99 23.5t-81 9.5q22 -7 37.5 -13.5t41.5 -27t43 -47t31.5 -75.5t16.5 -111q6 -109 6 -199l-6 -190q-3 -65 -16.5 -115.5t-30 -78.5t-41 -48
t-42 -27.5t-40.5 -13.5q561 53 561 473z" />
    <glyph glyph-name="germandbls" unicode="&#xdf;" horiz-adv-x="1386" 
d="M899 174q0 62 -43 105t-104 43q-62 0 -105 -43t-43 -105q0 -61 43 -104t105 -43t104.5 42.5t42.5 104.5zM475 1235v-1206l39 -29h-432l41 31v1005q0 114 28 203t73 140.5t99 87t108 48t99 18t73 3.5l28 -2q-6 -1 -16.5 -5t-37.5 -24.5t-47.5 -50t-37.5 -87.5t-17 -132z
M1063 731q-68 70 -102.5 139.5t-36 119t7 89t22.5 59.5l13 19q-256 -202 -256 -369q0 -86 31 -145.5t116 -138.5q124 -113 168.5 -176t44.5 -138q0 -38 -8.5 -68.5t-21 -47.5t-25 -28.5t-20.5 -15.5l-9 -3q58 15 112.5 43.5t101.5 68t75.5 94.5t28.5 115q0 95 -48 173
t-194 210z" />
    <glyph glyph-name="agrave" unicode="&#xe0;" horiz-adv-x="1181" 
d="M1040 76q8 -6 16 -10.5t15.5 -6t14.5 -2t13 0.5t10.5 2t7.5 2l3 1q-64 -46 -144 -63.5t-151 -3t-119.5 73.5t-48.5 155v725q0 36 -11.5 64.5t-28.5 43.5t-34 25t-29 13l-11 2q89 0 161 -16t119.5 -41t83 -63.5t54.5 -75.5t30 -85t14 -84.5t3 -81.5v-450q0 -101 32 -125z
M346 1042q72 0 122 -50t50 -122q0 -71 -50 -121.5t-122 -50.5t-123 50.5t-51 121.5q0 72 51 122t123 50zM451 80q14 -28 35 -46t35 -22l14 -4q-17 -4 -46 -7t-72.5 -2t-87.5 7.5t-89 26.5t-79.5 50t-56.5 81.5t-22 118.5q0 53 19 97t48.5 73t71 51t80.5 33.5t83 18.5t73.5 9
t56.5 2q-71 -28 -84 -112q-12 -85 -12 -181q0 -119 33 -194zM748 1247l-433 279l13 16l432 -276z" />
    <glyph glyph-name="aacute" unicode="&#xe1;" horiz-adv-x="1181" 
d="M1040 76q8 -6 16 -10.5t15.5 -6t14.5 -2t13 0.5t10.5 2t7.5 2l3 1q-64 -46 -144 -63.5t-151 -3t-119.5 73.5t-48.5 155v725q0 36 -11.5 64.5t-28.5 43.5t-34 25t-29 13l-11 2q89 0 161 -16t119.5 -41t83 -63.5t54.5 -75.5t30 -85t14 -84.5t3 -81.5v-450q0 -101 32 -125z
M346 1042q72 0 122 -50t50 -122q0 -71 -50 -121.5t-122 -50.5t-123 50.5t-51 121.5q0 72 51 122t123 50zM451 80q14 -28 35 -46t35 -22l14 -4q-17 -4 -46 -7t-72.5 -2t-87.5 7.5t-89 26.5t-79.5 50t-56.5 81.5t-22 118.5q0 53 19 97t48.5 73t71 51t80.5 33.5t83 18.5t73.5 9
t56.5 2q-71 -28 -84 -112q-12 -85 -12 -181q0 -119 33 -194zM336 1247l434 281l-10 16l-434 -278z" />
    <glyph glyph-name="acircumflex" unicode="&#xe2;" horiz-adv-x="1181" 
d="M1040 76q8 -6 16 -10.5t15.5 -6t14.5 -2t13 0.5t10.5 2t7.5 2l3 1q-64 -46 -144 -63.5t-151 -3t-119.5 73.5t-48.5 155v725q0 36 -11.5 64.5t-28.5 43.5t-34 25t-29 13l-11 2q89 0 161 -16t119.5 -41t83 -63.5t54.5 -75.5t30 -85t14 -84.5t3 -81.5v-450q0 -101 32 -125z
M346 1042q72 0 122 -50t50 -122q0 -71 -50 -121.5t-122 -50.5t-123 50.5t-51 121.5q0 72 51 122t123 50zM451 80q14 -28 35 -46t35 -22l14 -4q-17 -4 -46 -7t-72.5 -2t-87.5 7.5t-89 26.5t-79.5 50t-56.5 81.5t-22 118.5q0 53 19 97t48.5 73t71 51t80.5 33.5t83 18.5t73.5 9
t56.5 2q-71 -28 -84 -112q-12 -85 -12 -181q0 -119 33 -194zM150 1217l393 294l391 -294l12 16l-403 303l-406 -303z" />
    <glyph glyph-name="atilde" unicode="&#xe3;" horiz-adv-x="1181" 
d="M1040 76q8 -6 16 -10.5t15.5 -6t14.5 -2t13 0.5t10.5 2t7.5 2l3 1q-64 -46 -144 -63.5t-151 -3t-119.5 73.5t-48.5 155v725q0 36 -11.5 64.5t-28.5 43.5t-34 25t-29 13l-11 2q89 0 161 -16t119.5 -41t83 -63.5t54.5 -75.5t30 -85t14 -84.5t3 -81.5v-450q0 -101 32 -125z
M346 1042q72 0 122 -50t50 -122q0 -71 -50 -121.5t-122 -50.5t-123 50.5t-51 121.5q0 72 51 122t123 50zM451 80q14 -28 35 -46t35 -22l14 -4q-17 -4 -46 -7t-72.5 -2t-87.5 7.5t-89 26.5t-79.5 50t-56.5 81.5t-22 118.5q0 53 19 97t48.5 73t71 51t80.5 33.5t83 18.5t73.5 9
t56.5 2q-71 -28 -84 -112q-12 -85 -12 -181q0 -119 33 -194zM911 1462q-1 -2 -3.5 -5.5t-11 -13t-18 -17t-25 -15.5t-32 -12t-38 -2.5t-44.5 10.5q-27 12 -105 61t-140 68q-74 19 -132 4t-100 -54t-64 -76t-26 -60q2 5 6.5 12t22 23.5t39 25.5t59.5 8.5t82 -18.5
q46 -18 113 -58t110 -57q65 -23 115.5 -14.5t86.5 39.5t59.5 64.5t34.5 60.5z" />
    <glyph glyph-name="adieresis" unicode="&#xe4;" horiz-adv-x="1181" 
d="M1040 76q8 -6 16 -10.5t15.5 -6t14.5 -2t13 0.5t10.5 2t7.5 2l3 1q-64 -46 -144 -63.5t-151 -3t-119.5 73.5t-48.5 155v725q0 36 -11.5 64.5t-28.5 43.5t-34 25t-29 13l-11 2q89 0 161 -16t119.5 -41t83 -63.5t54.5 -75.5t30 -85t14 -84.5t3 -81.5v-450q0 -101 32 -125z
M346 1042q72 0 122 -50t50 -122q0 -71 -50 -121.5t-122 -50.5t-123 50.5t-51 121.5q0 72 51 122t123 50zM451 80q14 -28 35 -46t35 -22l14 -4q-17 -4 -46 -7t-72.5 -2t-87.5 7.5t-89 26.5t-79.5 50t-56.5 81.5t-22 118.5q0 53 19 97t48.5 73t71 51t80.5 33.5t83 18.5t73.5 9
t56.5 2q-71 -28 -84 -112q-12 -85 -12 -181q0 -119 33 -194zM446 1364q0 71 -51 121.5t-123 50.5q-70 0 -121 -51t-51 -121q0 -72 50.5 -123t121.5 -51q72 0 123 51t51 123zM985 1364q0 70 -50.5 121t-121.5 51q-72 0 -123 -50.5t-51 -121.5q0 -72 51 -123t123 -51
q71 0 121.5 51t50.5 123z" />
    <glyph glyph-name="aring" unicode="&#xe5;" horiz-adv-x="1181" 
d="M1040 76q8 -6 16 -10.5t15.5 -6t14.5 -2t13 0.5t10.5 2t7.5 2l3 1q-64 -46 -144 -63.5t-151 -3t-119.5 73.5t-48.5 155v725q0 36 -11.5 64.5t-28.5 43.5t-34 25t-29 13l-11 2q89 0 161 -16t119.5 -41t83 -63.5t54.5 -75.5t30 -85t14 -84.5t3 -81.5v-450q0 -101 32 -125z
M346 1042q72 0 122 -50t50 -122q0 -71 -50 -121.5t-122 -50.5t-123 50.5t-51 121.5q0 72 51 122t123 50zM451 80q14 -28 35 -46t35 -22l14 -4q-17 -4 -46 -7t-72.5 -2t-87.5 7.5t-89 26.5t-79.5 50t-56.5 81.5t-22 118.5q0 53 19 97t48.5 73t71 51t80.5 33.5t83 18.5t73.5 9
t56.5 2q-71 -28 -84 -112q-12 -85 -12 -181q0 -119 33 -194zM543 1169q75 0 128.5 54.5t53.5 130.5q0 75 -53.5 128.5t-128.5 53.5q-76 0 -130.5 -53.5t-54.5 -128.5q0 -76 54 -130.5t131 -54.5zM543 1516q66 0 114 -48t48 -114q0 -67 -48 -115.5t-114 -48.5
q-67 0 -115.5 48t-48.5 116q0 66 48.5 114t115.5 48z" />
    <glyph glyph-name="ae" unicode="&#xe6;" horiz-adv-x="1751" 
d="M1059 281q22 -134 121.5 -194t232.5 -17q-4 -3 -10.5 -8.5t-30.5 -19t-51 -23.5t-70 -18.5t-88 -8.5q-42 0 -88 4t-107 14t-113.5 30.5t-99 50t-73.5 77t-27 106.5v261v6v6v403q0 36 -11.5 64.5t-28.5 43.5t-34 25t-29 13l-11 2q230 0 348 -103q130 97 250 103
q-50 -25 -68.5 -96t-26.5 -187q-4 -78 -4 -274q0 -130 19 -260zM518 870q0 72 -50 122t-122 50t-123 -50t-51 -122q0 -71 51 -121.5t123 -50.5t122 50.5t50 121.5zM451 80q14 -28 35 -46t35 -22l14 -4q-17 -4 -46 -7t-72.5 -2t-87.5 7.5t-89 26.5t-79.5 50t-56.5 81.5
t-22 118.5q0 53 19 97t48.5 73t71 51t80.5 33.5t83 18.5t73.5 9t56.5 2q-71 -28 -84 -112q-12 -85 -12 -181q0 -119 33 -194zM1231 1098q68 -5 142.5 -42t141.5 -100t110.5 -162t43.5 -214h-467l115 59v14q0 104 -4 162q-1 15 -2 46t-1.5 45t-2 39.5t-4 37.5t-6.5 31
t-9.5 29.5t-13.5 22.5t-19 19.5t-24 12.5z" />
    <glyph glyph-name="ccedilla" unicode="&#xe7;" horiz-adv-x="1085" 
d="M844 63q-3 -3 -10 -7.5t-30.5 -17t-50.5 -22t-71 -17t-92 -7.5q-98 0 -189 39t-162 108t-114 174t-43 228q0 118 44.5 222.5t115 174.5t155.5 112.5t168 47.5q-35 -17 -55.5 -66t-27 -95t-11.5 -122q-4 -78 -4 -274q0 -137 18 -260q13 -79 48 -133t82.5 -76.5t106.5 -26
t122 17.5zM1004 1112v-567q-6 17 -16.5 45.5t-46 106.5t-74 145.5t-98 141.5t-120.5 114q15 -2 54.5 -12.5t79.5 -17.5t75 -7q42 0 90 14.5t56 36.5zM584 -78q-3 -5 -7.5 -14.5t-3.5 -35t17 -46.5q14 -17 61.5 -50t69.5 -67q23 -43 19.5 -84t-28 -78.5t-49 -62.5t-45.5 -37
q2 2 5.5 6.5t9 18.5t7 28.5t-4.5 36t-23 41.5q-20 23 -59.5 53.5t-58.5 53.5q-26 32 -26 68t18 64.5t40 53t40 37.5z" />
    <glyph glyph-name="egrave" unicode="&#xe8;" horiz-adv-x="1163" 
d="M643 1098q68 -5 142.5 -42t141.5 -100t110.5 -162t43.5 -214h-467l115 59v14q0 104 -4 162q-1 15 -2 46t-1.5 45t-2 39.5t-4 37.5t-6.5 31t-9.5 29.5t-13.5 22.5t-19 19.5t-24 12.5zM844 63q-4 -3 -11 -7.5t-31.5 -17t-51.5 -22t-70.5 -17t-89.5 -7.5q-98 0 -189 39
t-162 108t-114 174t-43 228q0 118 44.5 222.5t115 174.5t155.5 112.5t168 47.5q-35 -17 -55.5 -66t-27 -95t-11.5 -122q-4 -78 -4 -274q0 -137 18 -260q24 -150 125 -204.5t234 -13.5zM813 1247l-432 279l12 16l432 -276z" />
    <glyph glyph-name="eacute" unicode="&#xe9;" horiz-adv-x="1163" 
d="M643 1098q68 -5 142.5 -42t141.5 -100t110.5 -162t43.5 -214h-467l115 59v14q0 104 -4 162q-1 15 -2 46t-1.5 45t-2 39.5t-4 37.5t-6.5 31t-9.5 29.5t-13.5 22.5t-19 19.5t-24 12.5zM844 63q-4 -3 -11 -7.5t-31.5 -17t-51.5 -22t-70.5 -17t-89.5 -7.5q-98 0 -189 39
t-162 108t-114 174t-43 228q0 118 44.5 222.5t115 174.5t155.5 112.5t168 47.5q-35 -17 -55.5 -66t-27 -95t-11.5 -122q-4 -78 -4 -274q0 -137 18 -260q24 -150 125 -204.5t234 -13.5zM401 1247l435 281l-11 16l-434 -278z" />
    <glyph glyph-name="ecircumflex" unicode="&#xea;" horiz-adv-x="1163" 
d="M643 1098q68 -5 142.5 -42t141.5 -100t110.5 -162t43.5 -214h-467l115 59v14q0 104 -4 162q-1 15 -2 46t-1.5 45t-2 39.5t-4 37.5t-6.5 31t-9.5 29.5t-13.5 22.5t-19 19.5t-24 12.5zM844 63q-4 -3 -11 -7.5t-31.5 -17t-51.5 -22t-70.5 -17t-89.5 -7.5q-98 0 -189 39
t-162 108t-114 174t-43 228q0 118 44.5 222.5t115 174.5t155.5 112.5t168 47.5q-35 -17 -55.5 -66t-27 -95t-11.5 -122q-4 -78 -4 -274q0 -137 18 -260q24 -150 125 -204.5t234 -13.5zM215 1217l393 294l391 -294l13 16l-404 303l-405 -303z" />
    <glyph glyph-name="edieresis" unicode="&#xeb;" horiz-adv-x="1163" 
d="M643 1098q68 -5 142.5 -42t141.5 -100t110.5 -162t43.5 -214h-467l115 59v14q0 104 -4 162q-1 15 -2 46t-1.5 45t-2 39.5t-4 37.5t-6.5 31t-9.5 29.5t-13.5 22.5t-19 19.5t-24 12.5zM844 63q-4 -3 -11 -7.5t-31.5 -17t-51.5 -22t-70.5 -17t-89.5 -7.5q-98 0 -189 39
t-162 108t-114 174t-43 228q0 118 44.5 222.5t115 174.5t155.5 112.5t168 47.5q-35 -17 -55.5 -66t-27 -95t-11.5 -122q-4 -78 -4 -274q0 -137 18 -260q24 -150 125 -204.5t234 -13.5zM512 1364q0 71 -51 121.5t-123 50.5q-70 0 -121 -51t-51 -121q0 -72 50.5 -123
t121.5 -51q72 0 123 51t51 123zM1051 1364q0 70 -50.5 121t-121.5 51q-72 0 -123 -50.5t-51 -121.5q0 -72 51 -123t123 -51q71 0 121.5 51t50.5 123z" />
    <glyph glyph-name="igrave" unicode="&#xec;" horiz-adv-x="616" 
d="M104 0l39 29v1046l-39 23h392v-1069l39 -29h-431zM465 1264l-12 -17l-433 277l13 18z" />
    <glyph glyph-name="iacute" unicode="&#xed;" horiz-adv-x="575" 
d="M121 1075v-1046l-39 -29h430l-39 29v1069h-391zM123 1247l432 279l-12 16l-432 -276z" />
    <glyph glyph-name="icircumflex" unicode="&#xee;" horiz-adv-x="849" 
d="M31 1219l393 292l393 -292l12 16l-405 301l-404 -301zM209 0l39 29v1046l-39 23h391v-1069l39 -29h-430z" />
    <glyph glyph-name="idieresis" unicode="&#xef;" horiz-adv-x="1064" 
d="M317 0l39 29v1046l-39 23h392v-1069l39 -29h-431zM426 1364q0 72 -50 122t-122 50t-122 -50t-50 -122q0 -71 50 -121.5t122 -50.5t122 50.5t50 121.5zM983 1364q0 72 -50.5 122t-121.5 50q-72 0 -123 -50t-51 -122q0 -71 51 -121.5t123 -50.5q71 0 121.5 51t50.5 121z
" />
    <glyph glyph-name="eth" unicode="&#xf0;" horiz-adv-x="1312" 
d="M360 1061q-78 0 -133 54.5t-55 131.5q0 78 55 133.5t133 55.5t133.5 -55.5t55.5 -133.5q0 -77 -55.5 -131.5t-133.5 -54.5zM950 1399q125 -101 203 -261t78 -388q0 -129 -21 -237t-54 -182.5t-80.5 -133t-94.5 -93t-101 -58t-95 -33t-83 -13.5q26 13 44.5 35t38 69.5
t31 135.5t15.5 215q7 161 7 313l-7 319q-3 124 -26 218l-184 -119l-11 16l189 123q-15 52 -36.5 92.5t-42 61.5t-39 35t-29.5 18l-11 4q59 -5 137.5 -36t155.5 -89l182 117l10 -17zM82 455q0 103 32.5 183.5t86 127.5t115.5 70.5t128 23.5q61 0 114.5 -14t77.5 -28l23 -15
q-159 44 -210 -154q-18 -69 -21 -198q-2 -75 4 -213q3 -58 17.5 -104t33 -70t36.5 -39.5t30 -20.5l12 -4q-122 6 -230 62t-178.5 160t-70.5 233z" />
    <glyph glyph-name="ntilde" unicode="&#xf1;" horiz-adv-x="1241" 
d="M121 1075v-1046l-39 -29h430l-39 29v1069h-391zM733 0l41 29v886q0 46 -18.5 74t-45 35t-53 7.5t-45.5 -4.5l-18 -5q2 1 5 4t14 10.5t23 14.5t30.5 16.5t37 17t42 14t47 9.5t51 2.5t53.5 -6.5q114 -24 169.5 -98t55.5 -181v-796l37 -29h-426zM989 1462q-1 -2 -3.5 -5.5
t-11 -13t-18 -17t-25 -15.5t-32 -12t-38 -2.5t-44.5 10.5q-27 12 -105.5 61t-140.5 68q-74 19 -132 4t-99.5 -54.5t-63.5 -75.5t-26 -60q2 5 6.5 12t22 23.5t39 25.5t59.5 8.5t82 -18.5q46 -18 113 -58t110 -57q65 -23 115.5 -14.5t86.5 39.5t59.5 64.5t34.5 60.5z" />
    <glyph glyph-name="ograve" unicode="&#xf2;" horiz-adv-x="1259" 
d="M571 -10q-22 15 -32 23t-29.5 46.5t-30.5 98.5q-20 113 -20 387q0 229 20 375q21 146 92 178q-56 -5 -120.5 -30.5t-130 -74t-118.5 -112t-86.5 -151.5t-33.5 -185q0 -99 33 -187.5t85.5 -150.5t118.5 -110t130 -73.5t122 -33.5zM688 -10q22 15 32 23t29.5 46.5
t30.5 98.5q21 118 21 387q0 222 -21 375q-21 146 -92 178q56 -5 120.5 -30.5t130.5 -74t119 -112t86.5 -151.5t33.5 -185q0 -99 -33 -187.5t-85.5 -150.5t-118.5 -110t-130.5 -73.5t-122.5 -33.5zM836 1247l-433 279l13 16l432 -276z" />
    <glyph glyph-name="oacute" unicode="&#xf3;" horiz-adv-x="1259" 
d="M571 -10q-22 15 -32 23t-29.5 46.5t-30.5 98.5q-20 113 -20 387q0 229 20 375q21 146 92 178q-56 -5 -120.5 -30.5t-130 -74t-118.5 -112t-86.5 -151.5t-33.5 -185q0 -99 33 -187.5t85.5 -150.5t118.5 -110t130 -73.5t122 -33.5zM688 -10q22 15 32 23t29.5 46.5
t30.5 98.5q21 118 21 387q0 222 -21 375q-21 146 -92 178q56 -5 120.5 -30.5t130.5 -74t119 -112t86.5 -151.5t33.5 -185q0 -99 -33 -187.5t-85.5 -150.5t-118.5 -110t-130.5 -73.5t-122.5 -33.5zM424 1247l434 281l-10 16l-434 -278z" />
    <glyph glyph-name="ocircumflex" unicode="&#xf4;" horiz-adv-x="1259" 
d="M571 -10q-22 15 -32 23t-29.5 46.5t-30.5 98.5q-20 113 -20 387q0 229 20 375q21 146 92 178q-56 -5 -120.5 -30.5t-130 -74t-118.5 -112t-86.5 -151.5t-33.5 -185q0 -99 33 -187.5t85.5 -150.5t118.5 -110t130 -73.5t122 -33.5zM688 -10q22 15 32 23t29.5 46.5
t30.5 98.5q21 118 21 387q0 222 -21 375q-21 146 -92 178q56 -5 120.5 -30.5t130.5 -74t119 -112t86.5 -151.5t33.5 -185q0 -99 -33 -187.5t-85.5 -150.5t-118.5 -110t-130.5 -73.5t-122.5 -33.5zM238 1217l393 294l391 -294l12 16l-403 303l-406 -303z" />
    <glyph glyph-name="otilde" unicode="&#xf5;" horiz-adv-x="1259" 
d="M571 -10q-22 15 -32 23t-29.5 46.5t-30.5 98.5q-20 113 -20 387q0 229 20 375q21 146 92 178q-56 -5 -120.5 -30.5t-130 -74t-118.5 -112t-86.5 -151.5t-33.5 -185q0 -99 33 -187.5t85.5 -150.5t118.5 -110t130 -73.5t122 -33.5zM688 -10q22 15 32 23t29.5 46.5
t30.5 98.5q21 118 21 387q0 222 -21 375q-21 146 -92 178q56 -5 120.5 -30.5t130.5 -74t119 -112t86.5 -151.5t33.5 -185q0 -99 -33 -187.5t-85.5 -150.5t-118.5 -110t-130.5 -73.5t-122.5 -33.5zM999 1462q-1 -2 -3.5 -5.5t-11 -13t-18 -17t-25 -15.5t-32 -12t-38 -2.5
t-44.5 10.5q-27 12 -105 61t-140 68q-74 19 -132 4t-100 -54t-64 -76t-26 -60q2 5 6.5 12t22 23.5t39 25.5t59.5 8.5t82 -18.5q46 -18 113 -58t110 -57q65 -23 115.5 -14.5t86.5 39.5t59.5 64.5t34.5 60.5z" />
    <glyph glyph-name="odieresis" unicode="&#xf6;" horiz-adv-x="1259" 
d="M571 -10q-22 15 -32 23t-29.5 46.5t-30.5 98.5q-20 113 -20 387q0 229 20 375q21 146 92 178q-56 -5 -120.5 -30.5t-130 -74t-118.5 -112t-86.5 -151.5t-33.5 -185q0 -99 33 -187.5t85.5 -150.5t118.5 -110t130 -73.5t122 -33.5zM688 -10q22 15 32 23t29.5 46.5
t30.5 98.5q21 118 21 387q0 222 -21 375q-21 146 -92 178q56 -5 120.5 -30.5t130.5 -74t119 -112t86.5 -151.5t33.5 -185q0 -99 -33 -187.5t-85.5 -150.5t-118.5 -110t-130.5 -73.5t-122.5 -33.5zM535 1364q0 71 -51.5 121.5t-123.5 50.5q-70 0 -121 -51t-51 -121
q0 -72 50.5 -123t121.5 -51q72 0 123.5 51t51.5 123zM1073 1364q0 70 -50.5 121t-121.5 51q-72 0 -123 -50.5t-51 -121.5q0 -72 51 -123t123 -51q71 0 121.5 51t50.5 123z" />
    <glyph glyph-name="divide" unicode="&#xf7;" horiz-adv-x="1138" 
d="M1057 764v20h-975v-20h975zM569 1014q94 0 161 66.5t67 160.5t-67 160.5t-161 66.5t-160.5 -66.5t-66.5 -160.5t66.5 -160.5t160.5 -66.5zM569 1448q86 0 146.5 -60.5t60.5 -146.5t-60.5 -146.5t-146.5 -60.5q-85 0 -146 60.5t-61 146.5t61 146.5t146 60.5zM569 78
q94 0 161 66.5t67 160.5q0 95 -67 162.5t-161 67.5t-160.5 -67.5t-66.5 -162.5q0 -94 66.5 -160.5t160.5 -66.5zM569 514q86 0 146.5 -61.5t60.5 -147.5q0 -85 -60.5 -146t-146.5 -61q-85 0 -146 61t-61 146q0 86 61 147.5t146 61.5z" />
    <glyph glyph-name="oslash" unicode="&#xf8;" horiz-adv-x="1267" 
d="M829 1063q67 -29 127.5 -75.5t113.5 -110.5t84.5 -150.5t31.5 -181.5q0 -99 -33 -187.5t-85 -150.5t-118 -110t-130 -73.5t-122 -33.5q58 26 86 168q21 118 21 387q0 222 -21 375q0 3 -1 10t-1 10l-299 -776v-6q28 -142 86 -168q-72 11 -137 41l-70 -178h-22l74 186
q-65 32 -121.5 77.5t-105.5 107.5t-77 145t-28 176q0 97 33 185t86 151.5t118 112t129.5 74t120.5 30.5q-64 -26 -86 -178q-20 -146 -20 -375q0 -214 14 -340l297 772q-25 102 -76 121q43 -2 111 -27l76 193h20z" />
    <glyph glyph-name="ugrave" unicode="&#xf9;" horiz-adv-x="1239" 
d="M473 186q0 -27 5.5 -47.5t14.5 -32.5t21 -20.5t25.5 -11.5t26.5 -3.5t25.5 1.5t21.5 4t15 4l7 2q-2 -2 -5 -4.5t-13.5 -10t-22 -15t-28.5 -17t-35 -17t-40.5 -14t-44.5 -10t-47.5 -3t-50.5 6.5q-112 25 -169.5 99.5t-57.5 178.5v799l-39 23h391v-912zM766 0v1075l-39 23
h391v-1069l39 -29h-391zM825 1247l-432 279l13 16l432 -276z" />
    <glyph glyph-name="uacute" unicode="&#xfa;" horiz-adv-x="1239" 
d="M473 186q0 -27 5.5 -47.5t14.5 -32.5t21 -20.5t25.5 -11.5t26.5 -3.5t25.5 1.5t21.5 4t15 4l7 2q-2 -2 -5 -4.5t-13.5 -10t-22 -15t-28.5 -17t-35 -17t-40.5 -14t-44.5 -10t-47.5 -3t-50.5 6.5q-112 25 -169.5 99.5t-57.5 178.5v799l-39 23h391v-912zM766 0v1075l-39 23
h391v-1069l39 -29h-391zM414 1247l434 281l-10 16l-435 -278z" />
    <glyph glyph-name="ucircumflex" unicode="&#xfb;" horiz-adv-x="1239" 
d="M473 186q0 -27 5.5 -47.5t14.5 -32.5t21 -20.5t25.5 -11.5t26.5 -3.5t25.5 1.5t21.5 4t15 4l7 2q-2 -2 -5 -4.5t-13.5 -10t-22 -15t-28.5 -17t-35 -17t-40.5 -14t-44.5 -10t-47.5 -3t-50.5 6.5q-112 25 -169.5 99.5t-57.5 178.5v799l-39 23h391v-912zM766 0v1075l-39 23
h391v-1069l39 -29h-391zM227 1217l394 294l391 -294l12 16l-403 303l-406 -303z" />
    <glyph glyph-name="udieresis" unicode="&#xfc;" horiz-adv-x="1239" 
d="M473 186q0 -27 5.5 -47.5t14.5 -32.5t21 -20.5t25.5 -11.5t26.5 -3.5t25.5 1.5t21.5 4t15 4l7 2q-2 -2 -5 -4.5t-13.5 -10t-22 -15t-28.5 -17t-35 -17t-40.5 -14t-44.5 -10t-47.5 -3t-50.5 6.5q-112 25 -169.5 99.5t-57.5 178.5v799l-39 23h391v-912zM766 0v1075l-39 23
h391v-1069l39 -29h-391zM524 1364q0 71 -51 121.5t-123 50.5q-70 0 -121 -51t-51 -121q0 -72 50.5 -123t121.5 -51q72 0 123 51t51 123zM1063 1364q0 70 -50.5 121t-121.5 51q-72 0 -123 -50.5t-51 -121.5q0 -72 51 -123t123 -51q71 0 121.5 51t50.5 123z" />
    <glyph glyph-name="yacute" unicode="&#xfd;" horiz-adv-x="1261" 
d="M492 1069l323 -659l-174 -410l-545 1069l-35 29h457zM782 1098h398q-44 -15 -86.5 -59.5t-71.5 -96t-52.5 -101.5t-34.5 -83l-11 -33q6 87 -7 157.5t-34.5 109t-44.5 64t-40 34.5zM528 -131q0 69 -48.5 117.5t-117.5 48.5t-118 -48.5t-49 -117.5q0 -68 49 -117t118 -49
t117.5 49t48.5 117zM424 1247l434 281l-10 16l-434 -278z" />
    <glyph glyph-name="thorn" unicode="&#xfe;" horiz-adv-x="1269" 
d="M82 -428l39 29v1908l-39 27h391v-1935l39 -29h-430zM643 1112q44 0 84 -59.5t51 -196.5q8 -112 8 -287q0 -132 -8 -284q-15 -250 -135 -258q40 -11 85 -11.5t91 9.5t91 32.5t86 54.5t76 78.5t61 101.5t40.5 125.5t14.5 149.5q0 77 -15 147t-41.5 125t-62.5 102t-78 80.5
t-87.5 57.5t-90.5 35t-88.5 10.5t-81.5 -12.5z" />
    <glyph glyph-name="ydieresis" unicode="&#xff;" horiz-adv-x="1261" 
d="M492 1069l323 -659l-174 -410l-545 1069l-35 29h457zM782 1098h398q-44 -15 -86.5 -59.5t-71.5 -96t-52.5 -101.5t-34.5 -83l-11 -33q6 87 -7 157.5t-34.5 109t-44.5 64t-40 34.5zM528 -131q0 69 -48.5 117.5t-117.5 48.5t-118 -48.5t-49 -117.5q0 -68 49 -117t118 -49
t117.5 49t48.5 117zM535 1364q0 71 -51.5 121.5t-123.5 50.5q-70 0 -121 -51t-51 -121q0 -72 50.5 -123t121.5 -51q72 0 123.5 51t51.5 123zM1073 1364q0 70 -50.5 121t-121.5 51q-72 0 -123 -50.5t-51 -121.5q0 -72 51 -123t123 -51q71 0 121.5 51t50.5 123z" />
    <glyph glyph-name="OE" unicode="&#x152;" horiz-adv-x="2263" 
d="M1602 0q57 17 111 39t126 67t130 100.5t111 142.5t81 190v-539h-559zM1024 1536h414v-1536h-414l41 31v1474zM2095 1536h-493q91 -23 172.5 -76.5t136 -116t96.5 -131t62.5 -119.5t25.5 -83v526zM715 0q-53 32 -76 57q-99 106 -109 398q-8 161 -8 313q0 67 2 147.5
t4 127.5l2 47q3 102 19.5 181.5t35.5 123t49 77t45 43t38 21.5q-34 -3 -80 -16t-107.5 -42t-122 -69t-120 -102.5t-104.5 -137t-73 -179t-28 -222.5q0 -114 28 -216t73 -176.5t104.5 -138t120 -104.5t121.5 -71t107 -44.5t79 -17.5zM1851 475q-1 9 -10 35t-32 69.5
t-54.5 84.5t-83.5 77.5t-112 49.5q60 13 112.5 49t84 77.5t54.5 81.5t32 67l9 26v-617z" />
    <glyph glyph-name="oe" unicode="&#x153;" horiz-adv-x="1980" 
d="M569 1098q-64 -26 -86 -178q-20 -146 -20 -375q0 -275 20 -387q28 -142 86 -168q-58 8 -122 33.5t-129.5 73.5t-117.5 110t-85 150.5t-33 187.5q0 97 33 185t86 151.5t118 112t129.5 74t120.5 30.5zM1288 281q22 -134 121.5 -194t232.5 -17q-4 -3 -10.5 -8.5t-30.5 -19.5
t-50.5 -24.5t-69.5 -19t-88 -8.5q-104 0 -201 44t-168 124q-71 -71 -160 -114.5t-166 -53.5q58 26 86 168q21 118 21 387q0 222 -21 375q-22 152 -86 178q78 -6 170.5 -54t165.5 -126q71 79 161.5 126.5t172.5 53.5q-35 -17 -55.5 -66t-27 -95t-11.5 -122q-4 -78 -4 -274
q0 -137 18 -260zM1460 1098q68 -5 142.5 -42t141.5 -100t110.5 -162t43.5 -214h-466l114 59v14q0 104 -4 162q-1 15 -2 46t-1.5 45t-2 39.5t-4 37.5t-6.5 31t-9.5 29.5t-13.5 22.5t-19 19.5t-24 12.5z" />
    <glyph glyph-name="Ycircumflex" unicode="&#x176;" horiz-adv-x="1589" 
d="M1006 0l-41 31v731l-394 743l25 31h-494l41 -31l451 -852v-622l-43 -31h455zM1116 1098q8 16 23 42.5t59.5 95.5t87.5 125t99 108.5t102 66.5h-406q3 -2 9 -5.5t20.5 -19.5t25.5 -36t20 -56t9.5 -79t-11.5 -106.5t-38 -135.5zM403 1655l394 295l391 -295l12 16l-403 303
l-406 -303z" />
    <glyph glyph-name="ycircumflex" unicode="&#x177;" horiz-adv-x="1261" 
d="M492 1069l323 -659l-174 -410l-545 1069l-35 29h457zM782 1098h398q-44 -15 -86.5 -59.5t-71.5 -96t-52.5 -101.5t-34.5 -83l-11 -33q6 87 -7 157.5t-34.5 109t-44.5 64t-40 34.5zM528 -131q0 69 -48.5 117.5t-117.5 48.5t-118 -48.5t-49 -117.5q0 -68 49 -117t118 -49
t117.5 49t48.5 117zM238 1217l393 294l391 -294l12 16l-403 303l-406 -303z" />
    <glyph glyph-name="Ydieresis" unicode="&#x178;" horiz-adv-x="1589" 
d="M1006 0l-41 31v731l-394 743l25 31h-494l41 -31l451 -852v-622l-43 -31h455zM1116 1098q8 16 23 42.5t59.5 95.5t87.5 125t99 108.5t102 66.5h-406q3 -2 9 -5.5t20.5 -19.5t25.5 -36t20 -56t9.5 -79t-11.5 -106.5t-38 -135.5zM700 1802q0 71 -51 121.5t-123 50.5
q-70 0 -121 -51t-51 -121q0 -72 50.5 -123t121.5 -51q72 0 123 51t51 123zM1239 1802q0 70 -50.5 121t-121.5 51q-72 0 -123 -50.5t-51 -121.5q0 -72 51 -123t123 -51q71 0 121.5 51t50.5 123z" />
    <glyph glyph-name="gravecomb" unicode="&#x300;" 
d="M-94 1247l-432 279l12 16l432 -276z" />
    <glyph glyph-name="acutecomb" unicode="&#x301;" 
d="M-516 1247l434 281l-10 16l-434 -278z" />
    <glyph glyph-name="uni0302" unicode="&#x302;" 
d="M-879 1217l394 294l391 -294l12 16l-403 303l-406 -303z" />
    <glyph glyph-name="tildecomb" unicode="&#x303;" 
d="M-82 1462q-1 -2 -3.5 -5.5t-11 -13t-18 -17t-25 -15.5t-32 -12t-38 -2.5t-44.5 10.5q-27 12 -105.5 61t-140.5 68q-74 19 -132 4t-99.5 -54.5t-63.5 -75.5t-26 -60q2 5 6.5 12t22 23.5t39 25.5t59.5 8.5t82 -18.5q46 -18 113 -58t110 -57q65 -23 115.5 -14.5t86.5 39.5
t59.5 64.5t34.5 60.5z" />
    <glyph glyph-name="uni0307" unicode="&#x307;" 
d="M-82 1364q0 70 -51 121t-121 51q-72 0 -123 -50.5t-51 -121.5q0 -72 51 -123t123 -51q71 0 121.5 51t50.5 123z" />
    <glyph glyph-name="uni0308" unicode="&#x308;" 
d="M-621 1364q0 71 -51 121.5t-123 50.5q-71 0 -121.5 -51t-50.5 -121q0 -72 50.5 -123t121.5 -51q72 0 123 51t51 123zM-82 1364q0 70 -51 121t-121 51q-72 0 -123 -50.5t-51 -121.5q0 -72 51 -123t123 -51q71 0 121.5 51t50.5 123z" />
    <glyph glyph-name="uni030A" unicode="&#x30a;" 
d="M-264 1169q75 0 128.5 54.5t53.5 130.5q0 75 -53.5 128.5t-128.5 53.5q-76 0 -130.5 -53.5t-54.5 -128.5q0 -76 54.5 -130.5t130.5 -54.5zM-264 1516q66 0 114 -48t48 -114q0 -67 -48 -115.5t-114 -48.5q-68 0 -116 48t-48 116q0 66 48.5 114t115.5 48z" />
    <glyph glyph-name="uni0327" unicode="&#x327;" 
d="M-240 0q-3 -5 -7 -14.5t-3 -35t17 -46.5q14 -17 61.5 -50t69.5 -67q23 -43 19.5 -84t-28 -78.5t-49 -62.5t-45.5 -37q2 2 5.5 6.5t9 18.5t7 28.5t-4.5 36t-23 41.5q-20 23 -60 53t-59 53q-26 32 -26 68t18 65t40 53.5t40 37.5z" />
    <glyph glyph-name="Ygrave" unicode="&#x1ef2;" horiz-adv-x="1589" 
d="M1006 0l-41 31v731l-394 743l25 31h-494l41 -31l451 -852v-622l-43 -31h455zM1116 1098q8 16 23 42.5t59.5 95.5t87.5 125t99 108.5t102 66.5h-406q3 -2 9 -5.5t20.5 -19.5t25.5 -36t20 -56t9.5 -79t-11.5 -106.5t-38 -135.5zM1001 1686l-432 278l13 16l432 -276z" />
    <glyph glyph-name="ygrave" unicode="&#x1ef3;" horiz-adv-x="1261" 
d="M492 1069l323 -659l-174 -410l-545 1069l-35 29h457zM782 1098h398q-44 -15 -86.5 -59.5t-71.5 -96t-52.5 -101.5t-34.5 -83l-11 -33q6 87 -7 157.5t-34.5 109t-44.5 64t-40 34.5zM528 -131q0 69 -48.5 117.5t-117.5 48.5t-118 -48.5t-49 -117.5q0 -68 49 -117t118 -49
t117.5 49t48.5 117zM836 1247l-433 279l13 16l432 -276z" />
    <glyph glyph-name="endash" unicode="&#x2013;" horiz-adv-x="1427" 
d="M61 594v24h1305v-24h-1305z" />
    <glyph glyph-name="quotedblleft" unicode="&#x201c;" horiz-adv-x="755" 
d="M692 1413q6 -26 -2 -96q-5 -45 -60 -222t-69 -280q-15 105 -70.5 282.5t-60.5 217.5q-4 31 -4.5 55.5t0.5 33.5l2 9q6 53 43 88t88 35h2q50 0 87.5 -35.5t43.5 -87.5zM328 1413q6 -26 -2 -96q-5 -45 -60 -222t-69 -280q-15 105 -70.5 282.5t-60.5 217.5q-4 31 -4.5 55.5
t0.5 33.5l1 9q6 53 43.5 88t88.5 35h2q50 0 87.5 -35.5t43.5 -87.5z" />
    <glyph glyph-name="quotedblright" unicode="&#x201d;" horiz-adv-x="755" 
d="M692 1436q6 -27 -2 -97q-5 -45 -60 -221.5t-69 -279.5q-15 105 -70.5 282t-60.5 217q-4 31 -4.5 56t0.5 34l2 9q6 53 43 88t88 35h2q50 0 87.5 -35.5t43.5 -87.5zM328 1436q6 -27 -2 -97q-5 -45 -60 -221.5t-69 -279.5q-15 105 -70.5 282t-60.5 217q-4 31 -4.5 56t0.5 34
l1 9q6 53 43.5 88t88.5 35h2q50 0 87.5 -35.5t43.5 -87.5z" />
    <glyph glyph-name="Euro" unicode="&#x20ac;" horiz-adv-x="1712" 
d="M1116 -14q141 0 274 50t240 142l-14 17q-105 -91 -234 -140t-266 -49q-157 0 -299 62q-143 62 -244 163q-103 103 -163 244q-60 145 -60 297t60 297q60 141 163 244q108 105 244 164q140 61 299 61q138 0 267 -48.5t233 -139.5l14 16q-108 93 -241 143t-273 50
q-154 0 -307 -64q-137 -58 -250 -168q-110 -110 -168 -250q-61 -143 -61 -305t61 -305q58 -140 168 -250q113 -110 250 -168q151 -63 307 -63zM879 795l34 96h-792l-39 -96h797zM879 557l34 94h-792l-39 -94h797z" />
    <glyph glyph-name="minus" unicode="&#x2212;" horiz-adv-x="876" 
d="M795 760v20h-713v-20h713z" />
    <glyph glyph-name="notequal" unicode="&#x2260;" horiz-adv-x="1187" 
d="M473 240l289 1163l-19 6l-290 -1163zM1106 969v20h-1024v-20h1024zM1106 541v20h-1024v-20h1024z" />
    <glyph glyph-name="lessequal" unicode="&#x2264;" horiz-adv-x="1126" 
d="M1036 350l8 19l-913 419l913 410l-8 19l-954 -429zM1040 213v20h-934v-20h934z" />
    <glyph glyph-name="greaterequal" unicode="&#x2265;" horiz-adv-x="1126" 
d="M90 352l954 439l-954 428l-8 -19l913 -412l-913 -417zM1020 213v20h-934v-20h934z" />
    <glyph glyph-name="A.ss01" horiz-adv-x="1568" 
d="M1016 0h450l-39 31l-553 1505h-186l-94 -303l457 -1202zM485 0q-3 1 -8 4.5t-19 17.5t-26.5 32.5t-27.5 52t-25 74t-15.5 101t-3.5 130.5q-4 -14 -12 -38t-34.5 -87t-55 -115t-71 -103t-85.5 -69h383z" />
    <glyph glyph-name="H.ss01" horiz-adv-x="1527" 
d="M557 0l-43 31v1476l41 29h-453l41 -31v-1474l-41 -31h455zM971 0l43 31v1474l-43 31h452l-39 -29v-1476l41 -31h-454z" />
    <glyph glyph-name="J.ss01" horiz-adv-x="1114" 
d="M571 1536h441l-37 -23v-995q0 -143 -38 -244.5t-111.5 -160.5t-169.5 -86t-222 -27q24 5 45.5 18.5t45.5 45.5t41 79t28.5 126t11.5 180v1064zM449 209q0 71 -51.5 121.5t-123.5 50.5q-70 0 -121 -50.5t-51 -121.5q0 -72 50.5 -123t121.5 -51q72 0 123.5 51t51.5 123z
" />
    <glyph glyph-name="M.ss01" horiz-adv-x="1818" 
d="M1675 31l41 -31h-454l43 31v1257l106 248h303l-39 -29v-1476zM1024 418l-100 -418h-140l-622 1505l-56 31h463zM479 0q-6 2 -16 8.5t-37 38.5t-50 78.5t-47.5 138t-37.5 207.5q-15 -85 -33.5 -157t-36.5 -119t-35.5 -84t-32.5 -57t-26.5 -33t-18.5 -17l-6 -4h377z" />
    <glyph glyph-name="N.ss01" horiz-adv-x="1648" 
d="M573 0q-51 35 -91.5 105.5t-62 146t-35.5 146t-18 116.5l-4 45q-1 -18 -4.5 -48t-20 -112t-38.5 -151t-64.5 -141.5t-95.5 -106.5h434zM1321 397l-12 -397h-172l-985 1505l-50 31h469zM1147 1536h399q-6 -3 -16 -9.5t-38 -38t-51 -75t-48 -127.5t-37 -188
q-10 77 -27 142.5t-36 109.5t-40 78.5t-39.5 54t-33.5 32.5t-24 17z" />
    <glyph glyph-name="V.ss01" horiz-adv-x="1638" 
d="M567 1536h-465l37 -31l568 -1505h202l84 309l-454 1196zM1239 1098q10 95 0.5 167.5t-31.5 123.5t-44.5 84t-39.5 48l-18 15h430q-58 -21 -110 -73.5t-84.5 -113t-57 -118t-34.5 -95.5z" />
    <glyph glyph-name="W.ss01" horiz-adv-x="2162" 
d="M1645 442l-365 1065l27 29h-469l36 -31l504 -1505h176zM905 406l-358 1099l26 31h-471l37 -31l498 -1505h166zM1628 1536h432q-52 -20 -99.5 -77t-78 -124t-53.5 -131t-33 -106l-10 -43q4 79 -3 148t-20.5 116.5t-31 86.5t-35.5 62.5t-33.5 39.5t-24.5 22z" />
    <glyph glyph-name="S.ss02" horiz-adv-x="1357" 
d="M780 975q240 -99 357.5 -216t117.5 -296q0 -95 -31 -179t-82.5 -142.5t-115.5 -97.5t-133 -54q54 27 87.5 97t33 146t-38.5 142q-48 73 -134 120.5t-278 120.5q-224 85 -330 191.5t-127 249.5q-16 120 26.5 227.5t123 175.5t178.5 86q-57 -26 -79.5 -113.5t14.5 -181.5
q12 -28 30.5 -53t34.5 -43t50.5 -39.5t54 -33.5t71.5 -35t76.5 -33.5t93.5 -38.5zM768 1233q11 83 81 134t161 34q-18 40 -70.5 76.5t-95.5 52.5l-43 16q164 -33 272.5 -139.5t93.5 -230.5q-10 -83 -78 -133.5t-151 -38.5q-83 10 -132.5 77.5t-37.5 151.5zM530 322
q-11 -85 -80.5 -135t-160.5 -33q18 -41 70.5 -77.5t95.5 -52.5l43 -16q-107 20 -194.5 76t-135 134t-37.5 159q10 84 77.5 134.5t151.5 39.5q83 -12 132.5 -79t37.5 -150z" />
    <glyph glyph-name="c.ss01" horiz-adv-x="1026" 
d="M811 1055q72 0 123 -50t51 -122q0 -71 -51 -121.5t-123 -50.5t-123 50.5t-51 121.5q0 72 51 122t123 50zM590 -10q72 0 135 19.5t90 38.5l27 20q-133 -43 -234 17t-123 194q-18 126 -18 260q0 198 4 276q4 70 21 122t44 83t55.5 49t65.5 29q-152 0 -282 -66
t-211.5 -195.5t-81.5 -297.5q0 -123 43 -228t114 -174t162 -108t189 -39z" />
    <glyph glyph-name="e.ss01" horiz-adv-x="1163" 
d="M844 63q-4 -3 -11 -7.5t-31.5 -17t-51.5 -22t-70.5 -17t-89.5 -7.5q-98 0 -189 39t-162 108t-114 174t-43 228q0 118 44.5 222.5t115 174.5t155.5 112.5t168 47.5q-35 -17 -55.5 -66t-27 -95t-11.5 -122q-4 -78 -4 -274q0 -137 18 -260q24 -150 125 -204.5t234 -13.5z
M643 1098q68 -5 142.5 -42t141.5 -100t110.5 -162t43.5 -214h-350q0 42 -2 73q0 104 -4 162q-1 15 -2 46t-1.5 45t-2 39.5t-4 37.5t-6.5 31t-9.5 29.5t-13.5 22.5t-19 19.5t-24 12.5z" />
    <glyph glyph-name="v.ss01" horiz-adv-x="1226" 
d="M795 207l-58 -207h-217l-403 1069l-35 29h434l-31 -29zM1145 1098h-336q3 -1 8 -3.5t21 -13.5t27.5 -28t28.5 -48t24 -73t13 -102t-3 -136q31 107 65 187.5t60 120t47.5 63.5t33.5 29z" />
    <glyph glyph-name="w.ss01" horiz-adv-x="1744" 
d="M729 322l-250 747l31 29h-428l35 -29l375 -1069h151zM1341 332l-84 -332h-151l-379 1069l-35 29h428l-26 -29zM1663 1098h-336l7.5 -2.5t18.5 -11t26 -24t27 -43.5t25.5 -66.5t17 -96t5.5 -129.5q29 95 61.5 168.5t57.5 110.5t46 60t33 28z" />
    <glyph glyph-name="a.ss02" horiz-adv-x="1181" 
d="M1040 76q8 -6 16 -10.5t15.5 -6t14.5 -2t13 0.5t10.5 2t7.5 2l3 1q-64 -46 -144 -63.5t-151 -3t-119.5 73.5t-48.5 155v725q0 36 -11.5 64.5t-28.5 43.5t-34 25t-29 13l-11 2q89 0 161 -16t119.5 -41t83 -63.5t54.5 -75.5t30 -85t14 -84.5t3 -81.5v-450q0 -101 32 -125z
M489 850q-9 67 -63.5 108t-126.5 29q14 33 49.5 58.5t64.5 34.5l29 10q-119 -14 -202.5 -93t-69.5 -186q9 -67 61.5 -108t118.5 -33q66 7 106.5 60.5t32.5 119.5zM451 80q14 -28 35 -46t35 -22l14 -4q-17 -4 -46 -7t-72.5 -2t-87.5 7.5t-89 26.5t-79.5 50t-56.5 81.5
t-22 118.5q0 53 19 97t48.5 73t71 51t80.5 33.5t83 18.5t73.5 9t56.5 2q-71 -28 -84 -112q-12 -85 -12 -181q0 -119 33 -194z" />
    <glyph glyph-name="f.ss02" horiz-adv-x="1040" 
d="M578 784q8 3 20.5 8.5t47 24.5t63.5 41t59 58t43 75v-416q-16 41 -46 77.5t-61 59.5t-60 40t-48 24zM657 1536q-4 0 -10.5 -0.5t-25.5 -6.5t-36 -16.5t-38 -33t-36 -53t-25.5 -80.5t-10.5 -111v-1206l39 -29h-432l41 31v1005q0 112 29.5 200t76.5 139.5t104 87.5
t114 49.5t104 20t77 5.5zM860 1405q-70 20 -129 -16.5t-74 -102.5q-14 -65 21.5 -122t99.5 -70q66 -13 122 22t73 101q25 105 -51.5 192t-194.5 113q12 -5 31 -13.5t55.5 -39t46.5 -64.5z" />
    <glyph glyph-name="s.ss02" horiz-adv-x="1007" 
d="M602 715q101 -46 137 -68q187 -115 187 -299q0 -141 -86 -236t-232 -120q2 0 11.5 5t25 18.5t27.5 36.5t18.5 59t-2.5 86q-4 24 -13.5 44.5t-30 39t-36.5 31.5t-50 29.5t-52 24.5t-62 26.5t-61 25.5q-46 21 -78 37.5t-78 50t-74.5 69t-49.5 90.5t-21 119q0 51 16.5 101.5
t49 95.5t89 77t128.5 40q-2 0 -5.5 -1t-13.5 -6t-18.5 -11.5t-17.5 -19t-13.5 -28t-4 -39t8.5 -51.5q15 -49 65.5 -93t91.5 -65.5t127 -60.5q11 -5 17 -8zM594 862q5 60 48 98t106 31q-9 30 -47.5 57t-72.5 38l-34 12q117 -12 202 -86.5t81 -171.5q-3 -58 -49 -97t-105 -34
q-58 4 -96 49t-33 104zM397 244q-5 -63 -51.5 -102.5t-112.5 -30.5q10 -32 54.5 -60.5t83.5 -41.5l39 -13q-126 12 -218 91t-86 179q3 61 50 101.5t108 35.5q60 -4 99 -50.5t34 -108.5z" />
    <glyph glyph-name="y.ss02" horiz-adv-x="1261" 
d="M492 1069l323 -659l-174 -410l-545 1069l-35 29h457zM795 1098h385q-44 -18 -86.5 -63.5t-71.5 -97t-52.5 -100t-34.5 -80.5l-11 -32q10 84 1.5 147t-30 106.5t-44 70t-39.5 37.5zM369 -20q63 -25 88.5 -88.5t-4.5 -131.5q36 4 69.5 32.5t49.5 54.5l16 26
q-47 -117 -141 -172t-199 -18q-61 22 -87 84t-1 124q25 61 86 87.5t123 1.5z" />
    <glyph glyph-name="ampersand.ss02" horiz-adv-x="1642" 
d="M1479 815q0 71 -51 121.5t-123 50.5q-71 0 -121.5 -50.5t-50.5 -121.5q0 -72 50.5 -123t121.5 -51q72 0 123 51t51 123zM1044 1448q69 -62 73 -152t-56 -153q-32 -39 -115 -90q11 14 6 59q-7 59 -47 152.5t-88 175.5q-34 58 -57 79t-43 23q15 3 45 2.5t78.5 -5.5
t104.5 -28.5t99 -62.5zM1561 291q0 -41 -22 -89.5t-63 -94.5t-110.5 -76.5t-153.5 -30.5q-88 0 -172 57t-192 172q-182 228 -252 328l-195 311q-90 151 -84 291q3 152 109 264q26 28 61.5 50t57.5 30l22 8q-21 -24 -17 -77t25 -101q32 -87 118 -239t190 -285
q22 -28 75.5 -99t91.5 -121t96.5 -117t105.5 -110t102.5 -76t103.5 -38q77 -7 103 43zM770 72q-20 -4 -61 6q-87 21 -195 155q-56 78 -117 158q-100 150 -116 244q-5 33 -2.5 55.5t8.5 34.5l6 12q-11 -7 -22 -15t-40 -35t-52.5 -56t-48 -75t-36.5 -95q-41 -150 47 -281
q70 -93 160 -135q123 -55 281 -35q97 14 188 62z" />
    </font>
</defs>
</svg>
